<svg width="54" height="60" viewBox="0 0 54 60" fill="none" xmlns="http://www.w3.org/2000/svg">
<path d="M27 27C31.06 27 34.89 26.36 38.08 25.14C39.23 24.7 40 23.58 40 22.34V13.67C40 12.43 39.23 11.3 38.08 10.87C34.89 9.65001 31.06 9.01001 27 9.01001C22.94 9.01001 19.11 9.65001 15.92 10.87C14.77 11.31 14 12.43 14 13.67V22.34C14 23.58 14.77 24.71 15.92 25.14C19.11 26.36 22.94 27 27 27ZM16 13.66C16 13.24 16.25 12.87 16.63 12.72C19.55 11.61 23.24 10.99 27 10.99C30.76 10.99 34.44 11.6 37.37 12.72C37.75 12.86 38 13.24 38 13.66V22.33C38 22.75 37.75 23.12 37.37 23.27C34.45 24.38 30.76 25 27 25C23.24 25 19.56 24.39 16.63 23.27C16.25 23.13 16 22.75 16 22.33V13.66Z" fill="white"/>
<path d="M51 38.7V30C51 26.69 48.31 24 45 24H43.95C44.18 23.35 44.38 22.68 44.54 22H46C47.65 22 49 20.65 49 19V15C49 13.35 47.65 12 46 12H43.95C41.47 5.02 34.82 0 27 0C19.18 0 12.53 5.02 10.05 12H8C6.35 12 5 13.35 5 15V19C5 20.65 6.35 22 8 22H9.46C9.62 22.68 9.82 23.35 10.05 24H9C5.69 24 3 26.69 3 30V38.7C1.13 40.95 0 43.84 0 47V59C0 59.55 0.45 60 1 60H53C53.55 60 54 59.55 54 59V47C54 43.85 52.87 40.96 51 38.7ZM46 14C46.55 14 47 14.45 47 15V19C47 19.55 46.55 20 46 20H44.88C44.95 19.34 45 18.68 45 18C45 16.62 44.83 15.29 44.54 14H46ZM9 18C9 18.68 9.04 19.34 9.12 20H8C7.45 20 7 19.55 7 19V15C7 14.45 7.45 14 8 14H9.46C9.17 15.29 9 16.62 9 18ZM45 26C47.21 26 49 27.79 49 30V36.77C47.03 35.23 44.62 34.24 41.98 34.05C42.38 33.53 42.61 32.89 42.62 32.22C42.62 31.37 42.27 30.56 41.64 29.99C41.4 29.77 41.13 29.61 40.85 29.49C41.73 28.43 42.48 27.25 43.1 26.01H45V26ZM27 2C35.82 2 43 9.18 43 18C43 26.82 35.82 34 27 34C18.18 34 11 26.82 11 18C11 9.18 18.18 2 27 2ZM40.61 32.2C40.61 32.5 40.48 32.78 40.25 32.98C36.59 36.21 31.88 37.99 27 37.99C22.12 37.99 17.04 36.07 13.32 32.57C13.13 32.39 13.03 32.14 13.03 31.87C13.03 31.58 13.17 31.3 13.38 31.11C13.77 30.78 14.35 30.8 14.74 31.16C14.77 31.19 14.81 31.2 14.85 31.23C18.06 34.17 22.31 35.99 27 35.99C31.69 35.99 35.65 34.3 38.82 31.54C38.85 31.52 38.89 31.51 38.92 31.48C39.32 31.12 39.91 31.11 40.29 31.46C40.5 31.65 40.62 31.91 40.61 32.2ZM5 30C5 27.79 6.79 26 9 26H10.9C11.45 27.11 12.12 28.16 12.88 29.13C12.59 29.25 12.32 29.4 12.07 29.62C11.42 30.18 11.04 30.99 11.02 31.85C11 32.68 11.34 33.49 11.94 34.05C11.94 34.05 11.94 34.05 11.95 34.06C9.34 34.27 6.94 35.25 4.99 36.78V30.01L5 30ZM36 58H18V50C18 48.9 18.9 48 20 48H34C35.1 48 36 48.9 36 50V58ZM52 58H44V51C44 50.45 43.55 50 43 50C42.45 50 42 50.45 42 51V58H38V50C38 47.79 36.21 46 34 46H20C17.79 46 16 47.79 16 50V58H12V51C12 50.45 11.55 50 11 50C10.45 50 10 50.45 10 51V58H2V47C2 40.93 6.93 36 13 36H14C14.11 36 14.21 35.97 14.3 35.94C18 38.56 22.4 40 27 40C31.6 40 36.01 38.57 39.72 35.94C39.81 35.97 39.9 36 40 36H41C47.07 36 52 40.93 52 47V58Z" fill="white"/>
<path d="M21.5 53C22.3284 53 23 52.3284 23 51.5C23 50.6716 22.3284 50 21.5 50C20.6716 50 20 50.6716 20 51.5C20 52.3284 20.6716 53 21.5 53Z" fill="white"/>
<path d="M27 53C27.8284 53 28.5 52.3284 28.5 51.5C28.5 50.6716 27.8284 50 27 50C26.1716 50 25.5 50.6716 25.5 51.5C25.5 52.3284 26.1716 53 27 53Z" fill="white"/>
<path d="M32.5 53C33.3284 53 34 52.3284 34 51.5C34 50.6716 33.3284 50 32.5 50C31.6716 50 31 50.6716 31 51.5C31 52.3284 31.6716 53 32.5 53Z" fill="white"/>
</svg>
