<svg width="90" height="64" viewBox="0 0 90 64" fill="none" xmlns="http://www.w3.org/2000/svg">
<path fill-rule="evenodd" clip-rule="evenodd" d="M15.18 31.719C15.7815 15.758 28.918 3.05098 44.969 3.05098C48.7463 3.05098 52.3635 3.7541 55.692 5.03928H67.614C71.4538 5.03928 74.2078 6.92598 77.0671 9.96118L81.696 14.8714C82.3288 15.5433 83.1335 15.6995 84.0515 15.7073L88.0281 15.7464C88.8015 15.7542 89.4226 16.3831 89.4187 17.1566C89.4108 17.93 88.7819 18.5511 88.0085 18.5472L84.0319 18.5081C82.36 18.4925 80.8483 18.055 79.653 16.7893L75.0241 11.8791C72.7194 9.43772 70.5944 7.83612 67.6139 7.83612H61.1803C64.7194 10.1369 67.7467 13.172 70.0358 16.7228L71.0006 16.715C71.774 16.7111 72.4029 17.3361 72.4068 18.1095C72.4107 18.8829 71.7857 19.5118 71.0123 19.5157L54.8243 19.6212C52.4493 19.6368 52.3595 24.547 54.7188 24.5587L62.5079 24.5977C62.8751 24.5821 63.2501 24.7071 63.5391 24.9845L68.1446 29.3829C69.4063 30.5899 70.8204 31.1915 72.5508 31.1915L88.6018 31.2266C89.3753 31.2266 90.0041 31.8555 90.0041 32.6289C90.0041 33.4024 89.3752 34.0312 88.6018 34.0312L74.7618 34.0039C74.1603 49.9689 61.0238 62.6719 44.9728 62.6719C41.1955 62.6719 37.5783 61.9688 34.2498 60.6836H22.3908C18.551 60.6836 15.797 58.7969 12.9377 55.7617L8.30883 50.8515C7.67602 50.1796 6.87133 50.0233 5.95333 50.0155L1.97673 49.9765C1.20329 49.9687 0.582226 49.3397 0.586126 48.5663C0.593938 47.7928 1.22285 47.1718 1.99633 47.1757L5.97293 47.2147C7.64483 47.2304 9.15653 47.6678 10.3479 48.9295L14.9768 53.8397C17.2815 56.2811 19.4104 57.8827 22.387 57.8827H28.7581C25.219 55.5819 22.1917 52.5468 19.9026 48.996L19.0042 49.0038C18.2307 49.0077 17.6019 48.3828 17.598 47.6093C17.5941 46.8359 18.2191 46.207 18.9925 46.2031L35.0585 46.0977C37.4335 46.082 37.5194 41.1719 35.164 41.1602L27.496 41.1211C27.1288 41.1367 26.7538 41.0117 26.4648 40.7344L21.8554 36.336C20.5898 35.129 19.1796 34.5313 17.4492 34.5274L1.39816 34.4922C0.624716 34.4922 -0.000244141 33.8633 -0.000244141 33.0899C-0.000244141 32.3165 0.628666 31.6876 1.39816 31.6876L15.1752 31.715L15.18 31.719ZM6.17996 56.528L8.18776 55.9889C8.93385 55.7897 9.38305 55.0202 9.17994 54.2701C8.98072 53.5201 8.2112 53.0748 7.46115 53.2779L5.45335 53.817C4.70335 54.0162 4.25805 54.7857 4.46116 55.5358C4.66038 56.2858 5.42991 56.7311 6.17996 56.5319V56.528ZM14.5745 62.9303L15.1096 60.9225C15.3088 60.1725 14.8674 59.403 14.1174 59.2037C13.3674 59.0044 12.5979 59.4498 12.3986 60.1998L11.8635 62.2076C11.6642 62.9576 12.1096 63.7271 12.8557 63.9264C13.6057 64.1256 14.3752 63.6842 14.5745 62.9342V62.9303ZM8.64865 61.7272L11.2971 59.0788C11.8478 58.528 11.8478 57.6374 11.2971 57.0905C10.7463 56.5397 9.85566 56.5397 9.30876 57.0905L6.66036 59.7389C6.11348 60.2897 6.11348 61.1803 6.66036 61.7272C7.21114 62.278 8.10175 62.278 8.64865 61.7272ZM82.8207 7.47318L80.8129 8.01224C80.0629 8.21146 79.6176 8.98099 79.8207 9.73104C80.0199 10.481 80.7894 10.9263 81.5395 10.7232L83.5473 10.1842C84.2973 9.98495 84.7426 9.21151 84.5395 8.46537C84.3402 7.71537 83.5707 7.27007 82.8207 7.47318ZM74.4262 1.06698L73.891 3.07478C73.6918 3.82478 74.1332 4.59428 74.8832 4.79358C75.6332 4.99288 76.4027 4.54749 76.602 3.80139L77.1371 1.79359C77.3364 1.04359 76.895 0.274087 76.145 0.0747866C75.395 -0.124513 74.6255 0.320876 74.4262 1.06698ZM80.352 2.27008L77.7036 4.91848C77.1528 5.46926 77.1528 6.35988 77.7036 6.90678C78.2543 7.45756 79.145 7.45756 79.6919 6.90678L82.3403 4.25838C82.891 3.7076 82.891 2.81698 82.3403 2.27008C81.7895 1.7193 80.8989 1.7193 80.352 2.27008ZM23.29 48.9731C25.5439 52.0004 28.4228 54.5434 31.7353 56.4067C42.2353 62.3169 55.4773 60.5317 64.0553 51.9536C68.6959 47.313 71.653 40.9926 71.942 33.9846C70.2428 33.8791 68.692 33.3244 67.317 32.344C67.6334 44.828 57.5436 55.188 44.997 55.188C35.2079 55.188 29.743 49.0278 29.505 48.9302L23.29 48.9731ZM33.876 48.9028C41.6065 54.27 52.114 53.3403 58.794 46.6606C62.8096 42.645 64.9971 36.9379 64.4229 30.9696C64.376 30.4969 64.3135 30.0203 64.2314 29.5399L61.997 27.4071L54.7001 27.368C48.622 27.3368 48.7157 16.848 54.8056 16.825L56.1181 16.8211C48.3876 11.4539 37.8801 12.3836 31.2001 19.0633C27.1845 23.0789 24.997 28.786 25.5712 34.7543C25.6181 35.227 25.6806 35.7035 25.7626 36.184L27.9931 38.3129L35.1689 38.352C41.247 38.3832 41.1533 48.868 35.0635 48.895L33.876 48.8989V48.9028ZM22.677 33.3798C22.3645 20.8878 32.4543 10.5358 44.997 10.5358C54.7861 10.5358 60.251 16.696 60.489 16.7936L66.6413 16.7545C56.8249 3.5745 37.5553 2.0905 25.8713 13.774C21.2307 18.4146 18.2736 24.731 17.9846 31.739C19.7073 31.8367 21.2815 32.3874 22.6721 33.3835L22.677 33.3798ZM43.7 43.0282H46.5125V41.3251C48.7 40.7626 50.4227 39.0321 50.4227 36.5321C50.4227 29.743 42.411 33.1141 42.411 29.3094C42.411 26.7196 46.7313 26.3133 47.5204 28.7195L50.1923 27.8523C49.5907 26.0085 48.1611 24.907 46.5165 24.4968V22.696H43.704V24.4655C41.3602 24.9929 39.6024 26.7975 39.6024 29.3093C39.6024 36.0984 47.6141 32.7273 47.6141 36.532C47.6141 39.0945 43.2664 39.5593 42.4969 37.0945L39.8172 37.9305C40.4226 39.868 41.9539 41.0125 43.7039 41.3875V43.032L43.7 43.0282Z" fill="white"/>
</svg>
