<svg width="90" height="84" viewBox="0 0 90 84" fill="none" xmlns="http://www.w3.org/2000/svg">
<path d="M71.277 42.958C71.2515 42.647 71.3486 42.3384 71.5476 42.0981C71.7466 41.8577 72.0317 41.7048 72.342 41.6719C72.6523 41.639 72.9631 41.7287 73.2081 41.922C73.4531 42.1152 73.6127 42.3966 73.653 42.706C74.5024 50.3885 72.9204 58.1438 69.1298 64.8798C65.3392 71.6157 59.531 76.9928 52.5233 80.2538C45.5156 83.5147 37.6614 84.4952 30.0671 83.0571C22.4728 81.6189 15.521 77.8347 10.1908 72.2373C4.86056 66.6399 1.42054 59.5115 0.355239 51.856C-0.710064 44.2005 0.653025 36.4036 4.25252 29.5636C7.85202 22.7237 13.5065 17.1852 20.4197 13.7283C27.3328 10.2713 35.1562 9.0702 42.788 10.294C44.7152 10.5976 46.6147 11.0564 48.468 11.666C48.7456 11.7823 48.9694 11.9988 49.0949 12.2723C49.2204 12.5459 49.2385 12.8567 49.1457 13.143C49.0528 13.4293 48.8557 13.6703 48.5935 13.8181C48.3313 13.9659 48.0231 14.0098 47.73 13.941C44.63 12.9188 41.3995 12.3463 38.137 12.241V60.224C43.1316 60.2881 48.1136 60.7434 53.037 61.586C53.8615 58.2406 54.3922 54.8297 54.623 51.392C54.6685 51.0948 54.8239 50.8255 55.0584 50.6374C55.2929 50.4493 55.5895 50.3561 55.8895 50.3762C56.1895 50.3963 56.471 50.5283 56.6783 50.746C56.8856 50.9638 57.0036 51.2514 57.009 51.552C56.7676 55.082 56.2256 58.585 55.389 62.023C59.0983 62.7527 62.7602 63.7051 66.355 64.875C70.3921 58.322 72.1232 50.6076 71.273 42.958H71.277ZM35.742 33.311C30.7445 33.2534 25.7593 32.801 20.833 31.958C18.515 41.6932 18.515 51.8367 20.833 61.572C25.76 60.7342 30.7447 60.2818 35.742 60.219V33.311ZM18.481 31.527C14.7694 30.7973 11.1043 29.8483 7.50502 28.685C4.16347 34.1245 2.39453 40.3836 2.39453 46.7675C2.39453 53.1514 4.16347 59.4105 7.50502 64.85C11.1039 63.683 14.769 62.7313 18.481 62C16.104 51.98 16.104 41.5429 18.481 31.523V31.527ZM8.88102 26.614C12.2368 27.6732 15.6499 28.5413 19.104 29.214C20.855 23.249 23.838 17.123 28.28 13.321C20.4586 15.3492 13.5946 20.0529 8.88002 26.615L8.88102 26.614ZM21.466 29.645C26.1857 30.4383 30.9595 30.8663 35.745 30.925V12.3C31.428 12.872 27.495 16.49 24.531 22.053C23.2602 24.4751 22.2335 27.0176 21.466 29.643V29.645ZM38.137 62.61V81.229C42.032 80.714 45.616 77.712 48.463 73.042C50.158 70.1727 51.4845 67.1011 52.411 63.9C47.6931 63.1049 42.921 62.6736 38.137 62.61ZM54.773 64.331C53.022 70.3 50.039 76.417 45.606 80.21C53.416 78.1854 60.271 73.491 64.982 66.941C61.631 65.8791 58.2225 65.0077 54.773 64.331ZM35.742 62.605C30.9566 62.6658 26.1829 63.0937 21.463 63.885C22.2296 66.5107 23.2564 69.0533 24.528 71.475C27.492 77.038 31.428 80.661 35.742 81.229V62.605ZM19.1 64.317C15.6476 64.9897 12.2361 65.8577 8.88202 66.917C13.5928 73.4815 20.4552 78.1876 28.276 80.217C23.834 76.41 20.851 70.284 19.1 64.317ZM80.53 15.469H88.8C89.1183 15.469 89.4235 15.5954 89.6485 15.8205C89.8736 16.0455 90 16.3507 90 16.669V24.939C90 25.0966 89.969 25.2526 89.9087 25.3982C89.8484 25.5438 89.76 25.6761 89.6485 25.7875C89.5371 25.8989 89.4048 25.9873 89.2592 26.0476C89.1136 26.108 88.9576 26.139 88.8 26.139H80.53C80.3724 26.139 80.2164 26.108 80.0708 26.0476C79.9252 25.9873 79.7929 25.8989 79.6815 25.7875C79.5701 25.6761 79.4817 25.5438 79.4214 25.3982C79.3611 25.2526 79.33 25.0966 79.33 24.939V16.669C79.33 16.3507 79.4564 16.0455 79.6815 15.8205C79.9065 15.5954 80.2118 15.469 80.53 15.469ZM87.6 17.864H81.728V23.738H87.6V17.864ZM78.013 33.336H85.54C85.6976 33.336 85.8536 33.367 85.9992 33.4273C86.1448 33.4876 86.2771 33.576 86.3885 33.6875C86.5 33.7989 86.5884 33.9312 86.6487 34.0768C86.709 34.2224 86.74 34.3784 86.74 34.536V42.063C86.74 42.2206 86.709 42.3766 86.6487 42.5222C86.5884 42.6678 86.5 42.8001 86.3885 42.9115C86.2771 43.0229 86.1448 43.1113 85.9992 43.1716C85.8536 43.2319 85.6976 43.263 85.54 43.263H78.013C77.6948 43.263 77.3895 43.1366 77.1645 42.9115C76.9394 42.6865 76.813 42.3812 76.813 42.063V34.534C76.813 34.2157 76.9394 33.9105 77.1645 33.6855C77.3895 33.4604 77.6948 33.334 78.013 33.334V33.336ZM84.347 35.736H79.211V40.868H84.347V35.736ZM70.069 0.299988H81.059C81.2163 0.299985 81.372 0.331073 81.5172 0.391464C81.6624 0.451855 81.7942 0.540357 81.9051 0.65188C82.0159 0.763403 82.1037 0.895746 82.1632 1.0413C82.2228 1.18685 82.2529 1.34273 82.252 1.49999V12.481C82.252 12.798 82.1266 13.1022 81.903 13.3271C81.6795 13.5519 81.3761 13.6791 81.059 13.681H70.069C69.7508 13.681 69.4455 13.5546 69.2205 13.3295C68.9954 13.1045 68.869 12.7992 68.869 12.481V1.49999C68.869 1.18173 68.9954 0.876503 69.2205 0.65146C69.4455 0.426416 69.7508 0.299988 70.069 0.299988ZM79.861 2.69999H71.267V11.289H79.861V2.69999ZM54.986 4.59999H62.513C62.8313 4.59999 63.1365 4.72642 63.3615 4.95146C63.5866 5.1765 63.713 5.48173 63.713 5.79999V13.327C63.713 13.6452 63.5866 13.9505 63.3615 14.1755C63.1365 14.4006 62.8313 14.527 62.513 14.527H54.986C54.8282 14.5278 54.6718 14.4973 54.5259 14.4373C54.3799 14.3772 54.2473 14.2889 54.1357 14.1773C54.0241 14.0657 53.9358 13.9331 53.8757 13.7871C53.8157 13.6412 53.7852 13.4848 53.786 13.327V5.78799C53.786 5.46973 53.9124 5.1645 54.1375 4.93946C54.3625 4.71442 54.6678 4.58799 54.986 4.58799V4.59999ZM61.315 6.99999H56.179V12.131H61.315V6.99999ZM60.282 37H67.809C67.9668 36.9992 68.1232 37.0297 68.2692 37.0897C68.4151 37.1497 68.5477 37.2381 68.6593 37.3497C68.7709 37.4613 68.8593 37.5939 68.9193 37.7398C68.9793 37.8858 69.0098 38.0422 69.009 38.2V45.727C69.009 46.0452 68.8826 46.3505 68.6575 46.5755C68.4325 46.8006 68.1273 46.927 67.809 46.927H60.282C59.9638 46.927 59.6585 46.8006 59.4335 46.5755C59.2084 46.3505 59.082 46.0452 59.082 45.727V38.186C59.082 38.0284 59.1131 37.8724 59.1734 37.7268C59.2337 37.5812 59.3221 37.4489 59.4335 37.3375C59.5449 37.226 59.6772 37.1376 59.8228 37.0773C59.9684 37.017 60.1244 36.986 60.282 36.986V37ZM66.611 39.4H61.48V44.532H66.611V39.4ZM48.811 19.87H58.157C58.4753 19.87 58.7805 19.9964 59.0056 20.2215C59.2306 20.4465 59.357 20.7517 59.357 21.07V30.4C59.357 30.7182 59.2306 31.0235 59.0056 31.2485C58.7805 31.4736 58.4753 31.6 58.157 31.6H48.807C48.4888 31.6 48.1835 31.4736 47.9585 31.2485C47.7334 31.0235 47.607 30.7182 47.607 30.4V21.051C47.607 20.7327 47.7334 20.4275 47.9585 20.2025C48.1835 19.9774 48.4888 19.851 48.807 19.851L48.811 19.87ZM56.959 22.27H50.009V29.2H56.959V22.27ZM42.735 33.918H54.428C54.7463 33.918 55.0515 34.0444 55.2765 34.2695C55.5016 34.4945 55.628 34.7997 55.628 35.118V46.809C55.628 47.1272 55.5016 47.4325 55.2765 47.6575C55.0515 47.8826 54.7463 48.009 54.428 48.009H42.735C42.4168 48.009 42.1115 47.8826 41.8865 47.6575C41.6614 47.4325 41.535 47.1272 41.535 46.809V35.116C41.535 34.7977 41.6614 34.4925 41.8865 34.2675C42.1115 34.0424 42.4168 33.916 42.735 33.916V33.918ZM53.23 36.318H43.93V45.618H53.23V36.318ZM63.614 18.189H75.831C75.9886 18.189 76.1446 18.22 76.2902 18.2803C76.4358 18.3406 76.5681 18.429 76.6795 18.5405C76.791 18.6519 76.8794 18.7842 76.9397 18.9298C77 19.0754 77.031 19.2314 77.031 19.389V31.6C77.031 31.7576 77 31.9136 76.9397 32.0592C76.8794 32.2048 76.791 32.3371 76.6795 32.4485C76.5681 32.5599 76.4358 32.6483 76.2902 32.7086C76.1446 32.769 75.9886 32.8 75.831 32.8H63.614C63.2958 32.8 62.9905 32.6736 62.7655 32.4485C62.5404 32.2235 62.414 31.9182 62.414 31.6V19.387C62.414 19.0687 62.5404 18.7635 62.7655 18.5385C62.9905 18.3134 63.2958 18.187 63.614 18.187V18.189ZM74.633 20.589H64.812V30.41H74.633V20.589Z" fill="white"/>
</svg>
