<svg width="62" height="64" viewBox="0 0 62 64" fill="none" xmlns="http://www.w3.org/2000/svg">
<path d="M31.0454 56.6324C29.8086 56.6324 28.5688 56.5352 27.3608 56.3433C26.938 56.276 26.605 55.9474 26.5322 55.5255L25.9351 52.0611C24.5635 51.6666 23.2471 51.1085 22.0078 50.3966L19.0977 52.5001C18.7515 52.7496 18.2847 52.7525 17.9355 52.5069C15.9258 51.0899 14.1645 49.3726 12.7012 47.4024C12.4453 47.0582 12.4375 46.5894 12.6816 46.2369L14.856 43.0977C14.1611 41.815 13.6138 40.4615 13.2236 39.0597L9.37109 38.3697C8.95215 38.2945 8.62646 37.9625 8.55957 37.5416C8.36523 36.3155 8.271 35.1378 8.271 33.941C8.271 32.6436 8.37891 31.3961 8.59131 30.2335C8.66699 29.8214 8.99121 29.4996 9.40381 29.4278L13.2163 28.7652C13.585 27.3971 14.1343 26.0387 14.8564 24.7135L12.6968 21.6046C12.4517 21.252 12.4595 20.7818 12.7158 20.4371C14.1689 18.485 15.9287 16.7686 17.9468 15.3355C18.2954 15.0885 18.7622 15.0894 19.1089 15.3385L22.0093 17.42C23.2554 16.7125 24.5713 16.1578 25.9351 15.7652L26.5322 12.3009C26.6035 11.8878 26.9248 11.5626 27.3374 11.4869C29.584 11.0758 32.2031 11.0577 34.6504 11.4566C35.0718 11.525 35.4033 11.8536 35.4756 12.2745L36.0728 15.7647C37.4302 16.1539 38.7451 16.7081 39.9966 17.419L42.9097 15.3126C43.2559 15.0631 43.7227 15.0601 44.0718 15.3058C46.1152 16.7462 47.873 18.4659 49.2974 20.4171C49.5479 20.7599 49.5542 21.2242 49.313 21.5738L47.1504 24.711C47.8726 26.0372 48.4229 27.3956 48.7915 28.7642L52.6304 29.4278C53.0522 29.5006 53.3809 29.8341 53.4478 30.2569C53.6396 31.4683 53.7368 32.7081 53.7368 33.941C53.7368 35.1358 53.6421 36.3136 53.4478 37.5416C53.3809 37.9625 53.0552 38.2945 52.6362 38.3697L48.7842 39.0597C48.3936 40.4625 47.8462 41.816 47.1514 43.0982L49.3403 46.2657C49.584 46.6178 49.5757 47.0865 49.3203 47.4303C47.8535 49.4049 46.0957 51.1139 44.0957 52.5099C43.7476 52.7511 43.2842 52.7491 42.9409 52.502L40.0024 50.3951C38.7563 51.1119 37.439 51.6705 36.0718 52.0621L35.4751 55.5255C35.4028 55.9459 35.0718 56.274 34.6504 56.3424C33.4692 56.5348 32.2563 56.6324 31.0454 56.6324ZM28.3794 54.4679C30.1118 54.6827 31.897 54.6886 33.6274 54.4698L34.21 51.0909C34.2773 50.6993 34.5703 50.3849 34.9565 50.2896C36.562 49.8951 38.0977 49.2433 39.5205 48.3521C39.8638 48.1368 40.3047 48.1505 40.6338 48.3873L43.521 50.4571C44.9214 49.4068 46.1816 48.1817 47.2803 46.8028L45.1528 43.7276C44.9287 43.4073 44.9116 42.9864 45.1094 42.649C45.9683 41.1817 46.6064 39.6017 47.0063 37.9527C47.0996 37.5675 47.4116 37.2735 47.8018 37.2037L51.5723 36.5284C51.6826 35.6539 51.7368 34.8018 51.7368 33.941C51.7368 33.0504 51.6816 32.1568 51.5718 31.2745L47.8076 30.6241C47.4097 30.5553 47.0923 30.254 47.0029 29.86C46.644 28.2774 46.0068 26.6974 45.1094 25.1637C44.9131 24.8287 44.9287 24.4102 45.1489 24.0909L47.2559 21.0343C46.1826 19.6695 44.9209 18.4371 43.4932 17.359L40.6372 19.4239C40.3091 19.6607 39.8701 19.6768 39.5264 19.4644C38.0889 18.5777 36.5513 17.9293 34.9561 17.5367C34.5698 17.4415 34.2769 17.1266 34.2095 16.7345L33.627 13.3287C31.8647 13.106 30.0195 13.1158 28.3818 13.3443L27.7974 16.7354C27.73 17.1261 27.438 17.4405 27.0527 17.5362C25.4478 17.9347 23.9097 18.5831 22.4814 19.4644C22.1377 19.6764 21.7007 19.6602 21.3735 19.4259L18.5327 17.3868C17.1162 18.4625 15.8506 19.6954 14.7568 21.065L16.8569 24.088C17.0791 24.4078 17.0952 24.8272 16.8984 25.1637C16.001 26.6974 15.3638 28.2774 15.0049 29.86C14.916 30.2535 14.5986 30.5548 14.2012 30.6241L10.4492 31.2765C10.3306 32.1231 10.271 33.0167 10.271 33.941C10.271 34.8028 10.3247 35.6554 10.4351 36.5284L14.2061 37.2037C14.5962 37.2735 14.9082 37.5675 15.0015 37.9527C15.4009 39.6002 16.0391 41.1803 16.8984 42.649C17.0962 42.9869 17.0791 43.4083 16.8545 43.7286L14.7417 46.7755C15.8403 48.1549 17.1055 49.3883 18.5146 50.4537L21.3706 48.3892C21.7002 48.15 22.1421 48.1363 22.4873 48.3521C23.9014 49.2374 25.437 49.8897 27.0527 50.2901C27.438 50.3858 27.73 50.6998 27.7974 51.0909L28.3794 54.4679Z" fill="white"/>
<path d="M31.0039 43.42C25.7544 43.42 21.4834 39.149 21.4834 33.8995C21.4834 28.65 25.7544 24.379 31.0039 24.379C36.2534 24.379 40.5244 28.65 40.5244 33.8995C40.5244 39.149 36.2534 43.42 31.0039 43.42ZM31.0039 26.379C26.8569 26.379 23.4834 29.7525 23.4834 33.8995C23.4834 38.0464 26.8569 41.42 31.0039 41.42C35.1509 41.42 38.5244 38.0464 38.5244 33.8995C38.5244 29.7525 35.1509 26.379 31.0039 26.379Z" fill="white"/>
<path d="M28.1987 47.2647C28.126 47.2647 28.0518 47.2569 27.9775 47.2403C25.9893 46.7916 24.0923 45.8814 22.4912 44.608C22.0591 44.2642 21.9873 43.6348 22.3311 43.2027C22.6758 42.7701 23.3042 42.6983 23.7363 43.0426C25.103 44.1295 26.7217 44.9063 28.418 45.2891C28.9565 45.4107 29.2949 45.9459 29.1733 46.4849C29.0684 46.9493 28.6558 47.2647 28.1987 47.2647ZM33.8359 47.2584C33.3799 47.2584 32.9678 46.9444 32.8618 46.4805C32.7393 45.942 33.0762 45.4063 33.6147 45.2833C35.3096 44.897 36.9263 44.1168 38.291 43.0264C38.7222 42.6812 39.3501 42.751 39.6963 43.1837C40.041 43.6148 39.9707 44.2442 39.5391 44.5889C37.9409 45.8663 36.0459 46.7808 34.0591 47.2335C33.9844 47.2506 33.9097 47.2584 33.8359 47.2584ZM19.5894 40.4244C19.2183 40.4244 18.8618 40.2169 18.689 39.8604C17.7896 38.004 17.3311 36.0093 17.3272 33.9312C17.3262 33.379 17.773 32.9302 18.3252 32.9293H18.3271C18.8784 32.9293 19.3262 33.3756 19.3272 33.9273C19.3306 35.7022 19.7217 37.4049 20.4888 38.9884C20.7295 39.4854 20.522 40.0836 20.0249 40.3243C19.8843 40.3922 19.7358 40.4244 19.5894 40.4244ZM42.4302 40.399C42.2842 40.399 42.1367 40.3673 41.9971 40.2999C41.499 40.0606 41.29 39.463 41.5298 38.9654C42.293 37.3795 42.6802 35.6754 42.6802 33.8995C42.6802 33.3472 43.1279 32.8736 43.6802 32.8736C44.2324 32.8736 44.6802 33.2955 44.6802 33.8477V33.8995C44.6802 35.9781 44.2266 37.9747 43.3315 39.8326C43.1592 40.1905 42.8022 40.399 42.4302 40.399ZM19.5664 29.4278C19.4214 29.4278 19.2739 29.3966 19.1343 29.3297C18.6367 29.0904 18.4263 28.4932 18.665 27.9952C19.5464 26.1583 20.8545 24.5108 22.4478 23.232C22.8779 22.8863 23.5083 22.9547 23.8535 23.3858C24.1992 23.8165 24.1304 24.4459 23.6997 24.7916C22.3384 25.8843 21.2212 27.2916 20.4688 28.8604C20.2964 29.2188 19.939 29.4278 19.5664 29.4278ZM42.4058 29.356C42.0356 29.356 41.6797 29.1495 41.5064 28.794C40.7446 27.2305 39.6187 25.8306 38.2505 24.7457C37.8174 24.4024 37.7446 23.7735 38.0879 23.3409C38.4321 22.9088 39.061 22.837 39.4927 23.1783C41.0942 24.4483 42.4121 26.087 43.3042 27.918C43.5464 28.4146 43.3398 29.0133 42.8433 29.255C42.7022 29.3238 42.5527 29.356 42.4058 29.356ZM28.1445 22.5469C27.6895 22.5469 27.2778 22.2344 27.1709 21.7716C27.0469 21.2335 27.3828 20.6968 27.9209 20.5723C29.9014 20.1163 32.0151 20.1094 34.0024 20.5533C34.5415 20.6739 34.8809 21.2091 34.7603 21.7476C34.6392 22.2872 34.1055 22.626 33.5659 22.5054C31.8687 22.1251 30.0615 22.1309 28.3701 22.5216C28.2944 22.5386 28.2192 22.5469 28.1445 22.5469Z" fill="white"/>
<path d="M60.2978 39.0816C60.2475 39.0816 60.1967 39.0782 60.1459 39.0704C59.6 38.9874 59.2245 38.4771 59.3075 37.9312C61.5986 22.8775 51.2592 8.46542 36.2587 5.80429C33.9428 5.39267 31.5917 5.26913 29.2695 5.4371C28.7221 5.47079 28.2402 5.06259 28.2001 4.51132C28.1606 3.96054 28.5751 3.48202 29.1259 3.44198C31.6122 3.26425 34.1298 3.3956 36.6083 3.83456C52.6679 6.68417 63.7377 22.1143 61.2851 38.232C61.2094 38.7271 60.7831 39.0816 60.2978 39.0816Z" fill="white"/>
<path d="M7.09077 51.1949C6.77094 51.1949 6.45698 51.0421 6.26362 50.7584C1.7768 44.1778 0.0722105 36.2335 1.46381 28.3883C3.32026 17.9259 10.3452 9.35313 20.2553 5.45713C20.7705 5.25547 21.35 5.50791 21.5517 6.02207C21.7539 6.53575 21.5009 7.11631 20.9868 7.31846C11.7289 10.9581 5.16694 18.9654 3.43354 28.7379C2.13325 36.065 3.72504 43.4855 7.91596 49.6314C8.227 50.088 8.10932 50.7101 7.65327 51.0211C7.4809 51.1388 7.28461 51.1949 7.09077 51.1949Z" fill="white"/>
<path d="M31.2744 63.9957C29.5312 63.9957 27.7744 63.8444 26.0171 63.5328C21.0332 62.6486 16.3222 60.5196 12.394 57.3771C11.9624 57.0323 11.8926 56.4029 12.2378 55.9718C12.5825 55.5397 13.2129 55.4713 13.643 55.8155C17.3115 58.7496 21.7109 60.7374 26.3667 61.5631C38.7866 63.7667 51.2969 57.3917 56.7895 46.0612C57.0307 45.5641 57.6294 45.3585 58.1255 45.5973C58.6225 45.838 58.8301 46.4362 58.5893 46.9332C53.4858 57.4625 42.7212 63.9957 31.2744 63.9957Z" fill="white"/>
<path d="M58.9453 53.1651C58.4839 53.1656 58.0689 52.8438 57.9683 52.3741L56.9507 47.6163L52.207 48.6309C51.6699 48.7457 51.1358 48.4024 51.02 47.8619C50.9048 47.3219 51.249 46.7906 51.7891 46.6749L57.5103 45.4513C58.0503 45.337 58.5816 45.6803 58.6973 46.2203L59.9243 51.9561C60.0396 52.4962 59.6953 53.0274 59.1553 53.1432C59.085 53.1583 59.0147 53.1651 58.9453 53.1651Z" fill="white"/>
<path d="M32.5835 9.42979C32.3032 9.42979 32.0249 9.3126 31.8272 9.08408L28.3858 5.1085C28.2119 4.9083 28.125 4.64707 28.1441 4.38242C28.1631 4.11777 28.2866 3.87168 28.4873 3.69834L32.4727 0.248634C32.8902 -0.114159 33.521 -0.0667959 33.8828 0.350196C34.2446 0.767677 34.1992 1.39902 33.7813 1.76035L30.5523 4.55576L33.3389 7.77549C33.7007 8.19297 33.6553 8.82432 33.2373 9.18565C33.0484 9.34971 32.8154 9.42979 32.5835 9.42979Z" fill="white"/>
<path d="M7.07906 51.191C6.9985 51.191 6.91744 51.1813 6.83785 51.1617L1.13375 49.7443C0.597619 49.611 0.271447 49.0685 0.404259 48.5323C0.53756 47.9957 1.08102 47.6691 1.61617 47.8028L6.34957 48.9791L7.52194 44.2599C7.65524 43.7233 8.19723 43.3976 8.73385 43.5304C9.26949 43.6637 9.59615 44.2062 9.46334 44.7423L8.04977 50.4322C7.9858 50.6896 7.82223 50.9108 7.59469 51.048C7.43795 51.1422 7.25924 51.191 7.07906 51.191Z" fill="white"/>
</svg>
