<svg width="86" height="90" viewBox="0 0 86 90" fill="none" xmlns="http://www.w3.org/2000/svg">
<path fill-rule="evenodd" clip-rule="evenodd" d="M31.8 77.4H2.474V82.5C2.48834 83.1809 2.65069 83.8504 2.94978 84.4623C3.24887 85.0741 3.67753 85.6135 4.206 86.043C5.44049 87.0697 7.00049 87.6228 8.606 87.603H77.393C78.9985 87.623 80.5586 87.0698 81.793 86.043C82.3217 85.6136 82.7505 85.0742 83.0498 84.4624C83.349 83.8506 83.5115 83.1809 83.526 82.5V77.4H54.2L52.975 80.3C52.8866 80.5215 52.7337 80.7114 52.5362 80.8451C52.3386 80.9788 52.1055 81.0502 51.867 81.05H34.167C33.9274 81.0556 33.6918 80.9889 33.4906 80.8587C33.2894 80.7285 33.1321 80.5408 33.039 80.32L31.8 77.4ZM14.651 24.173V1.2C14.651 0.88174 14.7774 0.576516 15.0025 0.351472C15.2275 0.126428 15.5327 0 15.851 0H62.8C62.9576 0 63.1136 0.0310387 63.2592 0.0913444C63.4048 0.15165 63.5371 0.240042 63.6485 0.351472C63.76 0.462902 63.8484 0.595189 63.9087 0.74078C63.969 0.886371 64 1.04241 64 1.2V24.173H80.668C80.9863 24.173 81.2915 24.2994 81.5165 24.5245C81.7416 24.7495 81.868 25.0547 81.868 25.373V75H84.726C85.0443 75 85.3495 75.1264 85.5745 75.3515C85.7996 75.5765 85.926 75.8817 85.926 76.2V82.5C85.9121 83.5266 85.6745 84.5378 85.2297 85.4631C84.785 86.3885 84.1439 87.2058 83.351 87.858C81.6834 89.2587 79.5707 90.0183 77.393 90H8.607C6.43079 90.0176 4.31965 89.2585 2.653 87.859C1.85999 87.2067 1.21878 86.3892 0.774053 85.4637C0.329329 84.5381 0.0917933 83.5268 0.0780029 82.5V76.2C0.0780029 76.0424 0.109042 75.8864 0.169347 75.7408C0.229653 75.5952 0.318045 75.4629 0.429475 75.3515C0.540905 75.24 0.673192 75.1517 0.818783 75.0913C0.964374 75.031 1.12042 75 1.278 75H4.136V25.371C4.136 25.0527 4.26243 24.7475 4.48747 24.5225C4.71252 24.2974 5.01774 24.171 5.336 24.171L14.651 24.173ZM68.951 52.362H63.994V63.592C63.9972 64.2487 64.2595 64.8775 64.7239 65.3418C65.1884 65.806 65.8173 66.0681 66.474 66.071C67.1307 66.0684 67.7597 65.8063 68.224 65.342C68.6883 64.8777 68.9504 64.2487 68.953 63.592V52.362H68.951ZM62.28 66.071C61.8336 65.3212 61.5983 64.4646 61.599 63.592V51.164C61.599 51.144 61.599 51.124 61.599 51.104C61.599 51.084 61.599 51.063 61.599 51.043V2.4H17.047V64.3C17.0491 64.7698 17.2367 65.2199 17.5689 65.5521C17.9012 65.8843 18.3512 66.0719 18.821 66.074L62.28 66.071ZM63.994 49.971V26.571H79.471V75H53.407C53.1722 75.0009 52.9429 75.0706 52.7474 75.2006C52.5519 75.3305 52.3988 75.5149 52.307 75.731L51.072 78.651H34.928L33.734 75.829C33.6557 75.5881 33.5031 75.3781 33.2981 75.2292C33.0932 75.0803 32.8463 75 32.593 75H6.529V26.568H14.651V64.3C14.6534 65.4052 15.0935 66.4645 15.875 67.246C16.6565 68.0275 17.7158 68.4676 18.821 68.47H66.474C67.766 68.4671 69.0043 67.9525 69.9179 67.0389C70.8315 66.1253 71.3461 64.887 71.349 63.595V51.164C71.349 50.8457 71.2226 50.5405 70.9975 50.3155C70.7725 50.0904 70.4673 49.964 70.149 49.964L63.994 49.971ZM28.757 24.482V23.748C29.4177 23.5655 30.0291 23.2371 30.546 22.787C30.9707 22.4256 31.3126 21.9771 31.5486 21.4719C31.7847 20.9667 31.9093 20.4166 31.914 19.859C31.914 16.667 29.82 16.233 27.731 15.8C26.61 15.567 25.491 15.335 25.491 14.12C25.4957 13.9033 25.5468 13.6902 25.6408 13.4949C25.7348 13.2997 25.8696 13.1268 26.036 12.988C26.4667 12.6381 27.0046 12.4471 27.5595 12.4471C28.1144 12.4471 28.6524 12.6381 29.083 12.988C29.2496 13.1267 29.3844 13.2995 29.4785 13.4948C29.5725 13.6901 29.6235 13.9033 29.628 14.12C29.628 14.4383 29.7544 14.7435 29.9795 14.9685C30.2045 15.1936 30.5097 15.32 30.828 15.32C31.1463 15.32 31.4515 15.1936 31.6765 14.9685C31.9016 14.7435 32.028 14.4383 32.028 14.12C32.0234 13.5623 31.8988 13.0121 31.6626 12.5068C31.4263 12.0016 31.084 11.5531 30.659 11.192C30.1128 10.7163 29.4617 10.3767 28.759 10.201V9.501C28.7696 9.33723 28.7465 9.17304 28.6911 9.01856C28.6357 8.86408 28.5492 8.72261 28.437 8.60288C28.3247 8.48315 28.1891 8.38772 28.0386 8.32248C27.888 8.25724 27.7256 8.22358 27.5615 8.22358C27.3974 8.22358 27.235 8.25724 27.0844 8.32248C26.9339 8.38772 26.7983 8.48315 26.686 8.60288C26.5738 8.72261 26.4873 8.86408 26.4319 9.01856C26.3765 9.17304 26.3534 9.33723 26.364 9.501V10.2C25.6614 10.3759 25.0104 10.7155 24.464 11.191C24.0399 11.5528 23.6985 12.0016 23.4632 12.507C23.2278 13.0124 23.104 13.5625 23.1 14.12C23.1 17.277 25.176 17.707 27.258 18.139C28.389 18.374 29.523 18.609 29.523 19.859C29.5183 20.0755 29.4672 20.2885 29.3732 20.4836C29.2792 20.6787 29.1444 20.8514 28.978 20.99C28.5474 21.3399 28.0094 21.5309 27.4545 21.5309C26.8996 21.5309 26.3617 21.3399 25.931 20.99C25.7645 20.8515 25.6296 20.6789 25.5356 20.4837C25.4415 20.2886 25.3905 20.0756 25.386 19.859C25.386 19.5407 25.2596 19.2355 25.0345 19.0105C24.8095 18.7854 24.5043 18.659 24.186 18.659C23.8677 18.659 23.5625 18.7854 23.3375 19.0105C23.1124 19.2355 22.986 19.5407 22.986 19.859C22.9907 20.4167 23.1154 20.9669 23.3516 21.4721C23.5879 21.9773 23.9301 22.4258 24.355 22.787C24.9299 23.2855 25.6195 23.6335 26.362 23.8V24.478C26.3514 24.6418 26.3745 24.806 26.4299 24.9604C26.4853 25.1149 26.5718 25.2564 26.684 25.3761C26.7963 25.4958 26.9319 25.5913 27.0825 25.6565C27.233 25.7218 27.3954 25.7554 27.5595 25.7554C27.7236 25.7554 27.886 25.7218 28.0366 25.6565C28.1871 25.5913 28.3227 25.4958 28.435 25.3761C28.5472 25.2564 28.6337 25.1149 28.6891 24.9604C28.7445 24.806 28.7676 24.6418 28.757 24.478V24.482ZM37.036 15.766H55.072C55.2358 15.7766 55.4 15.7535 55.5544 15.6981C55.7089 15.6427 55.8504 15.5562 55.9701 15.444C56.0898 15.3317 56.1853 15.1961 56.2505 15.0456C56.3158 14.895 56.3494 14.7326 56.3494 14.5685C56.3494 14.4044 56.3158 14.242 56.2505 14.0914C56.1853 13.9409 56.0898 13.8053 55.9701 13.693C55.8504 13.5808 55.7089 13.4943 55.5544 13.4389C55.4 13.3835 55.2358 13.3604 55.072 13.371H37.036C36.8722 13.3604 36.708 13.3835 36.5536 13.4389C36.3991 13.4943 36.2576 13.5808 36.1379 13.693C36.0182 13.8053 35.9227 13.9409 35.8575 14.0914C35.7922 14.242 35.7586 14.4044 35.7586 14.5685C35.7586 14.7326 35.7922 14.895 35.8575 15.0456C35.9227 15.1961 36.0182 15.3317 36.1379 15.444C36.2576 15.5562 36.3991 15.6427 36.5536 15.6981C36.708 15.7535 36.8722 15.7766 37.036 15.766ZM37.036 22.828H55.072C55.2358 22.8386 55.4 22.8155 55.5544 22.7601C55.7089 22.7047 55.8504 22.6182 55.9701 22.506C56.0898 22.3937 56.1853 22.2581 56.2505 22.1076C56.3158 21.957 56.3494 21.7946 56.3494 21.6305C56.3494 21.4664 56.3158 21.304 56.2505 21.1534C56.1853 21.0029 56.0898 20.8673 55.9701 20.755C55.8504 20.6428 55.7089 20.5563 55.5544 20.5009C55.4 20.4455 55.2358 20.4224 55.072 20.433H37.036C36.8722 20.4224 36.708 20.4455 36.5536 20.5009C36.3991 20.5563 36.2576 20.6428 36.1379 20.755C36.0182 20.8673 35.9227 21.0029 35.8575 21.1534C35.7922 21.304 35.7586 21.4664 35.7586 21.6305C35.7586 21.7946 35.7922 21.957 35.8575 22.1076C35.9227 22.2581 36.0182 22.3937 36.1379 22.506C36.2576 22.6182 36.3991 22.7047 36.5536 22.7601C36.708 22.8155 36.8722 22.8386 37.036 22.828ZM49.769 29.89H55.069C55.3873 29.89 55.6925 29.7636 55.9175 29.5385C56.1426 29.3135 56.269 29.0083 56.269 28.69C56.269 28.3717 56.1426 28.0665 55.9175 27.8415C55.6925 27.6164 55.3873 27.49 55.069 27.49H49.769C49.4507 27.49 49.1455 27.6164 48.9205 27.8415C48.6954 28.0665 48.569 28.3717 48.569 28.69C48.569 29.0083 48.6954 29.3135 48.9205 29.5385C49.1455 29.7636 49.4507 29.89 49.769 29.89ZM24.744 29.89H45.055C45.3733 29.89 45.6785 29.7636 45.9035 29.5385C46.1286 29.3135 46.255 29.0083 46.255 28.69C46.255 28.3717 46.1286 28.0665 45.9035 27.8415C45.6785 27.6164 45.3733 27.49 45.055 27.49H24.744C24.4257 27.49 24.1205 27.6164 23.8955 27.8415C23.6704 28.0665 23.544 28.3717 23.544 28.69C23.544 29.0083 23.6704 29.3135 23.8955 29.5385C24.1205 29.7636 24.4257 29.89 24.744 29.89ZM24.744 36.953H55.072C55.3903 36.953 55.6955 36.8266 55.9205 36.6015C56.1456 36.3765 56.272 36.0713 56.272 35.753C56.272 35.4347 56.1456 35.1295 55.9205 34.9045C55.6955 34.6794 55.3903 34.553 55.072 34.553H24.744C24.4257 34.553 24.1205 34.6794 23.8955 34.9045C23.6704 35.1295 23.544 35.4347 23.544 35.753C23.544 36.0713 23.6704 36.3765 23.8955 36.6015C24.1205 36.8266 24.4257 36.953 24.744 36.953ZM35.074 44.015H55.074C55.3923 44.015 55.6975 43.8886 55.9225 43.6635C56.1476 43.4385 56.274 43.1333 56.274 42.815C56.274 42.4967 56.1476 42.1915 55.9225 41.9665C55.6975 41.7414 55.3923 41.615 55.074 41.615H35.074C34.7557 41.615 34.4505 41.7414 34.2255 41.9665C34.0004 42.1915 33.874 42.4967 33.874 42.815C33.874 43.1333 34.0004 43.4385 34.2255 43.6635C34.4505 43.8886 34.7557 44.015 35.074 44.015ZM24.744 44.015H30.36C30.6783 44.015 30.9835 43.8886 31.2085 43.6635C31.4336 43.4385 31.56 43.1333 31.56 42.815C31.56 42.4967 31.4336 42.1915 31.2085 41.9665C30.9835 41.7414 30.6783 41.615 30.36 41.615H24.744C24.4257 41.615 24.1205 41.7414 23.8955 41.9665C23.6704 42.1915 23.544 42.4967 23.544 42.815C23.544 43.1333 23.6704 43.4385 23.8955 43.6635C24.1205 43.8886 24.4257 44.015 24.744 44.015ZM24.744 51.077H55.072C55.3903 51.077 55.6955 50.9506 55.9205 50.7255C56.1456 50.5005 56.272 50.1953 56.272 49.877C56.272 49.5587 56.1456 49.2535 55.9205 49.0285C55.6955 48.8034 55.3903 48.677 55.072 48.677H24.744C24.4257 48.677 24.1205 48.8034 23.8955 49.0285C23.6704 49.2535 23.544 49.5587 23.544 49.877C23.544 50.1953 23.6704 50.5005 23.8955 50.7255C24.1205 50.9506 24.4257 51.077 24.744 51.077ZM24.744 58.139H55.072C55.3903 58.139 55.6955 58.0126 55.9205 57.7875C56.1456 57.5625 56.272 57.2573 56.272 56.939C56.272 56.6207 56.1456 56.3155 55.9205 56.0905C55.6955 55.8654 55.3903 55.739 55.072 55.739H24.744C24.4257 55.739 24.1205 55.8654 23.8955 56.0905C23.6704 56.3155 23.544 56.6207 23.544 56.939C23.544 57.2573 23.6704 57.5625 23.8955 57.7875C24.1205 58.0126 24.4257 58.139 24.744 58.139Z" fill="white"/>
</svg>
