<svg width="94" height="94" viewBox="0 0 94 94" fill="none" xmlns="http://www.w3.org/2000/svg">
<path fill-rule="evenodd" clip-rule="evenodd" d="M89.825 71.552L83.901 49.443L74.828 51.874L80.752 73.983L89.825 71.552ZM47.265 18.392C48.568 18.392 49.76 18.868 50.676 19.655L74.223 4.09201L72.45 4.17701C71.659 4.21501 70.987 3.60301 70.95 2.81201C70.913 2.02001 71.524 1.34901 72.315 1.31201C73.193 1.27001 79.246 0.939006 79.587 0.990006C80.542 1.13501 81.117 2.18401 80.625 3.10601L77.443 9.28401C77.08 9.98801 76.215 10.265 75.51 9.90201C74.806 9.53901 74.529 8.67401 74.892 7.96901L75.579 6.63601L52.259 22.05C53.322 25.41 50.815 28.868 47.264 28.868C43.515 28.868 40.998 25.041 42.429 21.613L35.697 16.248C33.876 17.552 31.418 17.549 29.599 16.242L19.217 24.483C20.641 27.909 18.123 31.729 14.378 31.729C9.72703 31.729 7.38303 26.079 10.675 22.788C12.487 20.976 15.349 20.738 17.431 22.235L27.812 13.995C26.389 10.568 28.906 6.74801 32.651 6.74801C36.396 6.74801 38.918 10.576 37.486 14.004L44.218 19.369C45.076 18.755 46.127 18.394 47.262 18.394L47.265 18.392ZM48.935 21.96C47.452 20.477 44.904 21.532 44.904 23.63C44.904 25.728 47.452 26.783 48.935 25.299C49.856 24.378 49.856 22.883 48.935 21.96ZM16.05 24.82C14.567 23.336 12.019 24.392 12.019 26.489C12.019 28.586 14.567 29.642 16.05 28.16C16.972 27.238 16.972 25.741 16.05 24.82ZM34.323 10.314C32.84 8.83101 30.292 9.88601 30.292 11.984C30.292 14.082 32.84 15.136 34.323 13.653C35.245 12.732 35.245 11.236 34.323 10.313V10.314ZM73.092 46.709V15.84H79.592V44.171C79.592 44.965 80.236 45.609 81.03 45.609C81.824 45.609 82.468 44.965 82.468 44.171V14.402C82.468 13.608 81.824 12.964 81.03 12.964H71.654C70.859 12.964 70.215 13.608 70.215 14.402V46.709C70.215 47.503 70.859 48.147 71.654 48.147C72.449 48.147 73.092 47.503 73.092 46.709ZM58.315 44.281V26.65H65.136V47.706C65.136 48.5 65.78 49.144 66.574 49.144C67.368 49.144 68.012 48.5 68.012 47.706V25.212C68.012 24.418 67.368 23.774 66.574 23.774H56.876C56.082 23.774 55.438 24.417 55.438 25.212V44.282C55.438 45.076 56.082 45.72 56.876 45.72C57.67 45.72 58.314 45.076 58.314 44.282L58.315 44.281ZM43.742 47.751C43.742 48.545 43.098 49.189 42.304 49.189C41.51 49.189 40.866 48.545 40.866 47.751V33.727C40.866 32.932 41.51 32.288 42.304 32.288H51.798C52.592 32.288 53.236 32.932 53.236 33.727V44.726C53.236 45.52 52.592 46.164 51.798 46.164C51.004 46.164 50.36 45.52 50.36 44.726V35.165H43.742V47.751ZM28.848 48.686V31.136H35.786V47.26C35.786 48.054 36.43 48.698 37.224 48.698C38.018 48.698 38.662 48.054 38.662 47.26V29.698C38.662 28.903 38.018 28.26 37.224 28.26H27.409C26.615 28.26 25.971 28.903 25.971 29.698V48.686C25.971 49.48 26.615 50.125 27.409 50.125C28.203 50.125 28.848 49.481 28.848 48.686ZM14.158 44.148C14.158 44.942 13.514 45.586 12.719 45.586C11.924 45.586 11.281 44.942 11.281 44.148V38.303C11.281 37.509 11.925 36.865 12.719 36.865H22.33C23.124 36.865 23.768 37.509 23.768 38.303V46.267C23.768 47.061 23.124 47.705 22.33 47.705C21.536 47.705 20.892 47.061 20.892 46.267V39.742H14.158V44.148ZM28.662 85.038L44.078 90.034C45.353 90.416 46.554 89.731 46.885 88.51L47.57 85.952C47.988 84.462 46.994 82.727 45.486 82.344L31.36 78.558C29.755 78.128 28.103 79.076 27.671 80.686L27.219 82.375C26.913 83.515 27.549 84.679 28.661 85.039L28.662 85.038ZM43.202 92.764L27.786 87.768C25.985 87.184 24.702 85.676 24.361 83.883C20.964 81.582 21.123 79.155 19.689 76.242L15.887 75.223L15.649 76.113C15.444 76.879 14.657 77.334 13.89 77.13L2.04303 73.955C1.27703 73.751 0.822034 72.963 1.02603 72.197L7.69303 47.313C7.89803 46.546 8.68503 46.091 9.45103 46.296L21.299 49.471C22.065 49.676 22.521 50.463 22.316 51.229L21.807 53.13L25.608 54.149C26.341 53.659 26.952 53.138 27.526 52.648C30.39 50.207 32.491 48.418 42.634 51.287C43.837 50.92 45.031 50.531 46.183 50.132C47.94 49.526 49.691 48.87 51.295 48.227C55.671 46.472 61.293 46.155 64.548 50.141C64.876 50.543 65.142 50.925 65.42 51.325C66.202 52.449 67.097 53.737 68.5 54.119L72.188 53.13L71.679 51.229C71.474 50.463 71.93 49.676 72.696 49.471L84.544 46.296C85.31 46.091 86.097 46.546 86.302 47.313L92.97 72.197C93.175 72.963 92.719 73.751 91.953 73.955L80.106 77.13C79.339 77.334 78.552 76.879 78.347 76.113L78.109 75.223L74.308 76.242C73.92 77.028 73.651 77.788 73.397 78.5C72.065 82.251 71.108 84.942 59.142 87.679L56.043 88.51C55.412 89.589 54.514 90.476 53.465 91.089C51.889 92.01 49.956 92.326 48.102 91.759C46.78 92.918 44.943 93.328 43.2 92.763L43.202 92.764ZM24.766 80.433C24.022 79.559 23.684 78.609 23.307 77.545C22.962 76.573 22.59 75.525 21.918 74.319C21.725 73.972 21.39 73.723 21.011 73.621L16.631 72.447L21.064 55.903L25.47 57.083C25.892 57.195 26.321 57.109 26.655 56.879C27.793 56.189 28.622 55.482 29.392 54.826C31.312 53.189 32.784 51.934 38.958 53.303C38.116 54.492 37.958 56.036 38.599 57.387C40.493 61.38 45.051 63.416 49.352 62.263L54.841 60.793C55.932 60.501 57.135 60.901 58.276 61.145C59.519 61.411 60.264 62.639 59.936 63.866L54.002 86.014C53.704 87.117 53.001 88.039 52.016 88.616C51.318 89.023 50.508 89.226 49.686 89.154L50.33 86.753C51.168 83.624 49.28 80.375 46.168 79.549C41.486 78.317 36.792 76.953 32.102 75.78C28.925 74.958 25.731 76.832 24.897 79.941L24.766 80.431V80.433ZM57.188 85.23L62.713 64.611C63.466 61.801 61.719 58.948 58.873 58.338C57.263 57.994 55.923 57.532 54.102 58.02L48.613 59.49C45.647 60.285 42.491 58.896 41.196 56.165C40.87 55.479 41.255 54.686 42.015 54.468C45.284 53.53 49.246 52.14 52.364 50.89C55.537 49.617 59.959 49.053 62.324 51.95C62.533 52.206 62.792 52.577 63.061 52.966C64.192 54.592 65.494 56.464 68.15 56.987C68.412 57.038 68.63 57.057 68.904 56.984L72.933 55.905L77.366 72.45L72.99 73.623C72.607 73.726 72.275 73.97 72.08 74.321C71.408 75.527 71.036 76.575 70.691 77.547C69.666 80.433 68.93 82.504 58.499 84.887L57.189 85.232L57.188 85.23ZM10.099 49.444L4.17503 71.553L13.248 73.985L19.172 51.876L10.1 49.445L10.099 49.444Z" fill="white"/>
</svg>
