<svg width="86" height="90" viewBox="0 0 86 90" fill="none" xmlns="http://www.w3.org/2000/svg">
<path d="M37.984 17.305C37.7887 17.305 37.5973 17.2464 37.4332 17.1253C37.1442 16.9144 36.9997 16.5589 37.0622 16.2073L37.9645 11.1018L34.234 7.50023C33.9762 7.25414 33.8824 6.87914 33.9957 6.53929C34.1051 6.19945 34.402 5.95335 34.7535 5.90257L39.8863 5.18382L42.1558 0.523623C42.316 0.203313 42.6441 0.000183105 42.9996 0.000183105C43.355 0.000183105 43.6832 0.203303 43.8394 0.523623L46.1089 5.18382L51.2417 5.90257C51.5972 5.95335 51.8902 6.19945 51.9995 6.53929C52.1089 6.87913 52.0151 7.25023 51.7612 7.50023L48.0307 11.1018L48.9331 16.2073C48.9956 16.5589 48.851 16.9144 48.562 17.1253C48.2729 17.3362 47.8901 17.3636 47.5737 17.1956L42.9995 14.7581L38.4214 17.1917C38.2847 17.2659 38.1325 17.305 37.984 17.305ZM42.9996 12.7659C43.152 12.7659 43.3004 12.801 43.4371 12.8753L46.7613 14.6448L46.1051 10.9378C46.0504 10.6331 46.1519 10.3206 46.3746 10.1018L49.0855 7.48853L45.355 6.96509C45.0464 6.92212 44.7808 6.72681 44.6441 6.44947L42.9996 3.06667L41.3512 6.45337C41.2144 6.73071 40.9488 6.92603 40.6402 6.96899L36.9097 7.49243L39.6206 10.1057C39.8433 10.3206 39.9448 10.6331 39.8901 10.9417L39.2339 14.6487L42.5581 12.8792C42.6987 12.805 42.8473 12.7659 42.9996 12.7659Z" fill="white"/>
<path d="M65.242 27.227C65.2186 27.227 65.199 27.227 65.1756 27.2231C64.8201 27.1997 64.5076 26.9731 64.3748 26.6411L62.4334 21.8325L57.3631 20.7544C57.0155 20.6802 56.7381 20.4145 56.6522 20.0669C56.5662 19.7192 56.6834 19.3559 56.9569 19.1255L60.9296 15.7935L60.3866 10.6373C60.3475 10.2818 60.5194 9.93804 60.8202 9.74664C61.121 9.55914 61.5077 9.55914 61.8085 9.74664L66.203 12.4966L70.9374 10.3872C71.2616 10.2427 71.6444 10.2935 71.9178 10.524C72.1913 10.7544 72.3085 11.1177 72.2225 11.4654L70.9686 16.4966L74.4374 20.3482C74.6757 20.6138 74.7421 20.9927 74.6093 21.3247C74.4765 21.6568 74.164 21.8833 73.8085 21.9068L68.6366 22.2661L66.0468 26.7583C65.8867 27.0474 65.574 27.227 65.242 27.227ZM59.6287 19.3286L63.3123 20.1099C63.617 20.1763 63.867 20.3872 63.9842 20.6724L65.3944 24.1646L67.2772 20.9029C67.4334 20.6333 67.7108 20.4614 68.0194 20.438L71.7772 20.1763L69.2577 17.3794C69.0506 17.1489 68.9686 16.8286 69.0467 16.5278L69.9569 12.8755L66.5155 14.4067C66.2303 14.5317 65.9022 14.5122 65.6405 14.3442L62.4491 12.3481L62.8436 16.0942C62.8749 16.4028 62.7538 16.7075 62.5155 16.9067L59.6287 19.3286Z" fill="white"/>
<path d="M20.758 27.227C20.426 27.227 20.1174 27.0512 19.9495 26.7582L17.3597 22.266L12.1878 21.9066C11.8323 21.8832 11.5198 21.6566 11.387 21.3246C11.2542 20.9926 11.3206 20.6137 11.5589 20.3481L15.0277 16.4965L13.7738 11.4653C13.6878 11.1176 13.805 10.7543 14.0784 10.5238C14.3519 10.2934 14.7308 10.2426 15.0589 10.3871L19.7933 12.4965L24.1878 9.74652C24.4886 9.55511 24.8753 9.55511 25.1761 9.74652C25.4808 9.93402 25.6488 10.2817 25.6097 10.6371L25.0667 15.7933L29.0394 19.1253C29.3129 19.3558 29.43 19.7191 29.3441 20.0668C29.2582 20.4144 28.9808 20.68 28.6332 20.7543L23.5629 21.8324L21.6215 26.641C21.4887 26.973 21.1762 27.1995 20.8207 27.223C20.8012 27.223 20.7776 27.227 20.758 27.227ZM14.2268 20.1762L17.9846 20.4379C18.2932 20.4613 18.5745 20.6332 18.7268 20.9027L20.6096 24.1644L22.0198 20.6722C22.137 20.3832 22.387 20.1722 22.6917 20.1097L26.3753 19.3285L23.4886 16.9105C23.2503 16.7113 23.1292 16.4066 23.1605 16.098L23.555 12.3519L20.3636 14.348C20.1019 14.512 19.7738 14.5355 19.4886 14.4105L16.0472 12.8793L16.9574 16.5316C17.0316 16.8324 16.9535 17.1527 16.7464 17.3831L14.2268 20.1762Z" fill="white"/>
<path d="M85.125 66.125L78.9023 59.9023C78.1328 59.1328 77.1054 58.707 76.0156 58.707C74.9258 58.707 73.9023 59.1328 73.1289 59.9023L72.6367 60.3945L68.9765 56.5586L65.9765 50.4609L67.0234 49.3789C67.8437 48.539 68.2968 47.418 68.2968 46.2227C68.2968 44.9805 67.7851 43.7774 66.8984 42.9258C66.1758 42.2227 65.2695 41.8047 64.3281 41.6797C64.8906 40.8984 65.1953 39.9688 65.1953 39C65.1953 37.7656 64.6836 36.5703 63.7891 35.7109C63.0079 34.9648 62.0118 34.5468 60.9922 34.4609C61.293 33.8476 61.4492 33.1679 61.4492 32.4687C61.4492 31.2187 60.9493 30.0507 60.047 29.1835C59.168 28.3358 58.0353 27.9062 56.8986 27.8983C57.0236 27.4764 57.09 27.035 57.09 26.5819C57.09 25.328 56.5978 24.16 55.6994 23.2811C54.2189 21.8631 52.0314 21.6327 50.3322 22.5623C49.4494 20.867 47.8205 19.9685 45.547 19.949L32.867 19.9529C32.4177 19.9529 32.031 20.2733 31.949 20.7186C31.6092 22.5624 31.9295 24.3241 32.8513 25.8202C31.7575 25.8983 30.738 26.3631 29.9568 27.1444C28.9725 28.1287 28.5349 29.4569 28.6365 30.7499C28.3826 30.7069 28.1209 30.6835 27.8592 30.6835C26.6365 30.6835 25.492 31.16 24.6248 32.0233C23.3826 33.2655 23.0076 35.0506 23.4998 36.621C22.3006 36.6366 21.1795 37.1092 20.3318 37.9569C18.8787 39.41 18.613 41.6014 19.5232 43.328C18.5193 43.4334 17.5466 43.8709 16.7771 44.6366C14.9959 46.4178 14.9959 49.3202 16.7771 51.1014L18.9646 53.2889L12.531 59.6092C11.8123 59.031 10.9255 58.7185 9.988 58.7185C8.8982 58.7185 7.8747 59.1443 7.1013 59.9138L0.878603 66.1365C0.702823 66.3123 0.605164 66.5506 0.605164 66.7967C0.605164 67.0428 0.702819 67.2811 0.878603 67.4569L23.1486 89.7269C23.3322 89.9104 23.5705 90.0003 23.8088 90.0003C24.047 90.0003 24.2853 89.9104 24.4689 89.7269L30.6916 83.5042C32.1682 82.0276 32.2736 79.6917 31.008 78.0901L39.6877 69.9143C41.7072 70.7228 46.465 71.8518 47.6916 71.9807C49.2268 72.1447 50.9533 73.3245 51.2268 73.5159L55.5471 77.4807L55.3049 77.7228C53.7151 79.3126 53.7151 81.9025 55.3049 83.4923L61.5276 89.715C61.7112 89.8986 61.9495 89.9885 62.1878 89.9885C62.4261 89.9885 62.6644 89.8986 62.848 89.715L85.118 67.445C85.4891 67.0818 85.4883 66.4883 85.125 66.125ZM33.691 21.82H45.535C47.2811 21.8356 48.3202 22.4528 48.8436 23.7966L40.9413 31.6677L38.7655 29.4919C39.5468 29.5817 40.3514 29.57 41.1561 29.4411C41.6639 29.3591 42.0116 28.8786 41.9296 28.3708C41.8475 27.863 41.3671 27.5153 40.8593 27.5974C38.7734 27.9333 36.6054 27.2497 35.1991 25.8162C34.1366 24.7264 33.6129 23.3278 33.691 21.82ZM31.273 28.4645C31.8004 27.9372 32.4918 27.6754 33.1832 27.6754C33.8746 27.6754 34.5699 27.9372 35.0934 28.4645L41.5622 34.9333C42.6169 35.988 42.6169 37.7028 41.5622 38.7575C41.0505 39.2692 40.3708 39.5505 39.652 39.5505C39.1208 39.5505 38.609 39.3981 38.1754 39.113L31.0856 32.0232C31.0348 31.9724 30.9841 31.9255 30.9333 31.8786C30.2341 30.8239 30.3472 29.3903 31.273 28.4645ZM25.9449 33.3395C26.4566 32.8278 27.1363 32.5465 27.8551 32.5465C28.484 32.5465 29.0817 32.7614 29.5621 33.152C29.6832 33.3082 29.8121 33.4645 29.9527 33.6051L36.4215 40.0739C36.5973 40.2497 36.7809 40.4059 36.9762 40.5466L37.07 40.6403C38.1247 41.695 38.1247 43.4098 37.07 44.4645C36.5583 44.9762 35.8786 45.2575 35.1598 45.2575C34.4371 45.2575 33.7575 44.9762 33.2496 44.4645L32.8433 44.0583C32.7222 43.8981 32.5894 43.7458 32.4449 43.6012L26.7926 37.9489C26.6481 37.8044 26.4957 37.6716 26.3356 37.5505L25.941 37.156C24.8902 36.1091 24.8902 34.3942 25.9449 33.3395ZM21.648 39.277C22.1597 38.7653 22.8394 38.484 23.5582 38.484C24.1246 38.484 24.6676 38.6598 25.1207 38.984L31.4176 45.2809C31.7418 45.734 31.9176 46.2731 31.9176 46.8434C31.9176 47.5661 31.6364 48.2457 31.1247 48.7536C30.6129 49.2653 29.9333 49.5466 29.2145 49.5466C28.6168 49.5466 28.0465 49.3513 27.5778 48.9919C27.5192 48.9255 27.4645 48.8591 27.3981 48.7927L23.2419 44.6365C23.1012 44.4959 22.9567 44.3748 22.8044 44.2576L21.6482 43.1014C21.1364 42.5897 20.8552 41.91 20.8552 41.1912C20.8552 40.4646 21.1363 39.7849 21.648 39.277ZM18.0933 45.9528C18.605 45.4411 19.2847 45.1598 20.0035 45.1598C20.5699 45.1598 21.1129 45.3356 21.566 45.6598L25.9762 50.07C26.0778 50.1716 26.1794 50.2653 26.2887 50.3552C26.6637 50.8278 26.8669 51.4099 26.8669 52.0232C26.8669 52.7458 26.5856 53.4255 26.0739 53.9334C25.0192 54.9881 23.3044 54.9881 22.2497 53.9334L18.0935 49.7772C17.0427 48.7264 17.0425 47.0075 18.0933 45.9528ZM20.9331 55.2575C21.8237 56.1481 22.9956 56.5934 24.1636 56.5934C25.3355 56.5934 26.5034 56.1481 27.3941 55.2575C28.4488 54.2028 28.8746 52.7536 28.6793 51.3786C28.8551 51.3981 29.0309 51.4098 29.2067 51.4098C30.4294 51.4098 31.5739 50.9333 32.4372 50.07C33.2809 49.2263 33.7536 48.1052 33.7731 46.9138C34.2145 47.0545 34.6754 47.1248 35.152 47.1248C36.3747 47.1248 37.5192 46.6482 38.3864 45.785C39.57 44.6014 39.9645 42.9256 39.5739 41.41H39.6481C40.8708 41.41 42.0153 40.9334 42.8786 40.0702C43.7419 39.2069 44.2184 38.0585 44.2184 36.8397C44.2184 35.617 43.7418 34.4725 42.8786 33.6092L42.2575 32.9881L50.5622 24.7147C50.5661 24.7108 50.57 24.7069 50.57 24.703C50.5739 24.6991 50.5739 24.6991 50.5778 24.6991C51.6051 23.6288 53.32 23.5975 54.3942 24.6249C54.9255 25.1444 55.2145 25.8397 55.2145 26.5858C55.2145 27.2889 54.9489 27.953 54.4684 28.4569L54.0817 28.8592C53.9216 28.9803 53.7536 29.1248 53.5739 29.3084L48.902 34.1404C48.8825 34.1599 48.8669 34.1873 48.8473 34.2107C48.8278 34.2342 48.8083 34.2576 48.7887 34.2849C48.7731 34.3123 48.7614 34.3396 48.7458 34.367C48.7301 34.3943 48.7145 34.4217 48.7028 34.449C48.6911 34.4763 48.6872 34.5076 48.6754 34.5349C48.6676 34.5623 48.6559 34.5935 48.652 34.6209C48.6481 34.6521 48.6442 34.6795 48.6442 34.7107C48.6403 34.742 48.6364 34.7693 48.6364 34.8006C48.6364 34.8318 48.6403 34.8592 48.6442 34.8904C48.6481 34.9217 48.6481 34.949 48.6559 34.9803C48.6598 35.0076 48.6715 35.0388 48.6794 35.0662C48.6872 35.0935 48.695 35.1248 48.7067 35.1521C48.7184 35.1795 48.734 35.2068 48.7497 35.2342C48.7653 35.2615 48.777 35.2888 48.7926 35.3123C48.8122 35.3396 48.8317 35.3631 48.8551 35.3865C48.8747 35.406 48.8864 35.4295 48.9059 35.449L48.9528 35.4959C48.9567 35.4998 48.9567 35.4998 48.9606 35.4998L48.9684 35.5076C48.9919 35.531 49.0192 35.5506 49.0465 35.5701C49.0661 35.5857 49.0856 35.6053 49.1051 35.617C49.1364 35.6365 49.1715 35.6521 49.2028 35.6678C49.2223 35.6795 49.2419 35.6912 49.2653 35.699C49.3044 35.7146 49.3434 35.7224 49.3825 35.7342C49.402 35.7381 49.4176 35.7459 49.4372 35.7498C49.4958 35.7615 49.5544 35.7654 49.6129 35.7654C49.6715 35.7654 49.734 35.7576 49.7926 35.7459C49.8122 35.742 49.8317 35.7342 49.8512 35.7303C49.8903 35.7185 49.9294 35.7107 49.9684 35.6951C49.9919 35.6873 50.0153 35.6717 50.0348 35.6599C50.0661 35.6443 50.1012 35.6287 50.1286 35.6092C50.152 35.5935 50.1715 35.574 50.195 35.5545C50.2184 35.5349 50.2458 35.5154 50.2692 35.4959C50.2731 35.492 50.2731 35.492 50.2731 35.4881L50.2809 35.4803L55.3004 30.2733C56.3512 29.5154 57.7848 29.6209 58.734 30.535C59.2692 31.0467 59.5621 31.7342 59.5621 32.4725C59.5621 33.1756 59.2926 33.8397 58.8043 34.3397L57.7379 35.4374C57.5778 35.5663 57.4411 35.703 57.32 35.8241C57.3161 35.828 57.3082 35.8358 57.3043 35.8397L53.8434 39.4256C53.8239 39.4452 53.8083 39.4725 53.7887 39.492C53.7692 39.5155 53.7458 39.5389 53.7302 39.5662C53.7145 39.5936 53.7028 39.6209 53.6872 39.6483C53.6716 39.6756 53.6559 39.703 53.6442 39.7303C53.6325 39.7577 53.6286 39.7889 53.6169 39.8162C53.6091 39.8436 53.5973 39.8748 53.5934 39.9022C53.5895 39.9334 53.5895 39.9608 53.5856 39.992C53.5817 40.0233 53.5778 40.0506 53.5778 40.0819C53.5778 40.1131 53.5817 40.1405 53.5856 40.1678C53.5895 40.1991 53.5895 40.2303 53.5973 40.2577C53.6012 40.285 53.613 40.3123 53.6208 40.3436C53.6286 40.3748 53.6364 40.4022 53.6481 40.4334C53.6598 40.4608 53.6755 40.4881 53.6911 40.5155C53.7067 40.5428 53.7184 40.5702 53.7341 40.5975C53.7536 40.6248 53.7731 40.6483 53.7966 40.6717C53.8161 40.6952 53.8317 40.7186 53.8512 40.7381L53.8825 40.7694C53.8864 40.7733 53.8864 40.7733 53.8903 40.7733C53.8942 40.7772 53.8942 40.7772 53.8942 40.7811C53.9177 40.8045 53.945 40.8241 53.9723 40.8436C53.9919 40.8592 54.0114 40.8787 54.0348 40.8905C54.0661 40.91 54.0973 40.9256 54.1286 40.9412C54.152 40.953 54.1716 40.9647 54.195 40.9764C54.2341 40.992 54.2731 40.9998 54.3083 41.0116C54.3278 41.0155 54.3434 41.0233 54.363 41.0272C54.4216 41.0389 54.4802 41.0428 54.5387 41.0428C54.6012 41.0428 54.6598 41.035 54.7184 41.0233C54.738 41.0194 54.7536 41.0116 54.7731 41.0077C54.8161 40.9959 54.8552 40.9881 54.8942 40.9686C54.9176 40.9608 54.9372 40.9452 54.9567 40.9334C54.9919 40.9178 55.0231 40.9022 55.0583 40.8787C55.0817 40.8631 55.1012 40.8436 55.1208 40.828C55.1481 40.8084 55.1755 40.7889 55.1989 40.7655C55.2028 40.7616 55.2028 40.7616 55.2028 40.7577C55.2067 40.7537 55.2067 40.7537 55.2106 40.7537L58.9762 36.8357C60.0192 36.0623 61.5114 36.1561 62.4684 37.0701C62.9958 37.574 63.2965 38.281 63.2965 39.0076C63.2965 39.7107 63.027 40.3787 62.5348 40.8943L60.7848 42.7029C60.7692 42.7146 60.7575 42.7264 60.7418 42.7381C60.6403 42.824 60.5153 42.9295 60.3942 43.0662L58.8004 44.7185C58.7809 44.738 58.7652 44.7615 58.7496 44.7849C58.7301 44.8083 58.7066 44.8318 58.691 44.8591C58.6754 44.8865 58.6598 44.9138 58.648 44.9411C58.6324 44.9685 58.6168 44.9958 58.609 45.0232C58.5973 45.0505 58.5894 45.0818 58.5816 45.113C58.5738 45.1404 58.5621 45.1677 58.5582 45.199C58.5543 45.2302 58.5504 45.2615 58.5504 45.2927C58.5465 45.3201 58.5426 45.3513 58.5426 45.3786C58.5426 45.4099 58.5465 45.4411 58.5504 45.4724C58.5543 45.4997 58.5543 45.531 58.5621 45.5583C58.5699 45.5896 58.5777 45.6169 58.5895 45.6482C58.5973 45.6755 58.6051 45.7029 58.6168 45.7302C58.6285 45.7576 58.6441 45.7849 58.6598 45.8161C58.6754 45.8435 58.6871 45.8669 58.7027 45.8943C58.7223 45.9216 58.7418 45.9451 58.7652 45.9724C58.7809 45.9919 58.7965 46.0154 58.816 46.0349L58.8473 46.0661C58.8707 46.0896 58.898 46.1091 58.9254 46.1286C58.9449 46.1443 58.9644 46.1638 58.9879 46.1755C59.0191 46.1951 59.0543 46.2107 59.0855 46.2263C59.1051 46.238 59.1285 46.2497 59.148 46.2576C59.1871 46.2732 59.2262 46.281 59.2652 46.2927C59.2848 46.2966 59.3004 46.3044 59.3199 46.3083C59.3785 46.3201 59.4371 46.324 59.4957 46.324C59.5543 46.324 59.6168 46.3161 59.6754 46.3083C59.6949 46.3044 59.7105 46.2966 59.7301 46.2927C59.7691 46.281 59.8121 46.2732 59.8512 46.2576C59.8746 46.2497 59.8941 46.2341 59.9137 46.2263C59.9488 46.2107 59.9801 46.1951 60.0113 46.1716C60.0348 46.156 60.0543 46.1365 60.0777 46.1208C60.1012 46.1013 60.1285 46.0818 60.152 46.0583C60.1559 46.0544 60.1559 46.0544 60.1598 46.0505C60.1637 46.0466 60.1637 46.0466 60.1676 46.0427L62.0582 44.0857C63.109 43.2693 64.609 43.3513 65.5699 44.2888C66.0972 44.7927 66.398 45.5036 66.398 46.2419C66.398 46.9451 66.1363 47.6013 65.6519 48.0935L63.7808 50.0271C63.7691 50.0428 63.7535 50.0545 63.7418 50.0701C63.7183 50.0974 61.4449 52.7381 53.9254 59.8123C50.0973 62.8943 48.5973 63.7615 46.0035 64.3865C42.2496 64.8318 40.0074 67.0154 39.7496 67.281L29.6796 76.7654L13.8676 60.9104L20.2817 54.6096L20.9331 55.2575ZM29.3706 82.1835L23.8081 87.746L2.85512 66.797L8.41762 61.2345C9.2809 60.3712 10.6832 60.3712 11.5465 61.2345L29.3665 79.0545C30.2337 79.9139 30.2339 81.3202 29.3706 82.1835ZM52.4486 72.1015C52.4252 72.0781 52.3978 72.0585 52.3705 72.0351C52.2767 71.9648 50.0619 70.3554 47.89 70.1249C46.4955 69.9764 43.0502 69.0663 41.2064 68.4804C41.6361 68.0819 43.4642 66.539 46.3002 66.2187C46.3393 66.2148 46.3744 66.207 46.4096 66.1992C49.5268 65.457 51.3276 64.3086 55.1518 61.2265C55.1713 61.2108 55.1869 61.1952 55.2065 61.1796C60.8276 55.8944 63.5385 53.0702 64.6088 51.9101L67.3627 57.5078C67.4056 57.5937 67.4603 57.6718 67.5267 57.7383L71.3197 61.711L56.8707 76.16L52.4486 72.1015ZM62.1908 87.7345L56.6283 82.172C55.765 81.3087 55.765 79.9064 56.6283 79.0431L74.4483 61.2231C74.878 60.7934 75.4483 60.5747 76.0147 60.5747C76.5811 60.5747 77.1475 60.7895 77.5811 61.2231L83.1436 66.7856L62.1908 87.7345Z" fill="white"/>
</svg>
