<svg width="450" height="448" viewBox="0 0 450 448" fill="none" xmlns="http://www.w3.org/2000/svg">
<path d="M119.03 291.59L42.3 193.34C41 191.81 39.86 190.9 37.71 190.62C35.56 190.36 34.25 190.99 32.61 192.15L10.56 209.38C7.74997 211.59 7.23997 215.76 9.42997 218.59L86.39 317.09C88.6 319.9 92.77 320.41 95.6 318.22L117.94 300.76C120.73 298.59 121.24 294.39 119.03 291.59ZM320.43 39.84C331.32 39.84 340.22 48.74 340.22 59.63V91.92H372.51C389.94 91.92 398.99 113.18 386.48 125.68C382.91 129.28 377.95 131.49 372.51 131.49H340.22V163.78C340.22 181.21 318.96 190.26 306.46 177.75C302.89 174.15 300.65 169.22 300.65 163.78V131.49H268.39C250.93 131.49 241.89 110.23 254.39 97.73C257.99 94.13 262.92 91.92 268.39 91.92H300.65V59.63C300.65 48.74 309.55 39.84 320.43 39.84ZM320.43 47.84C313.97 47.84 308.64 53.17 308.64 59.63V95.91C308.64 98.12 306.85 99.91 304.64 99.91H268.38C258.03 99.91 252.56 112.52 260.05 120.04C262.18 122.17 265.12 123.5 268.38 123.5H304.64C306.85 123.5 308.64 125.29 308.64 127.5V163.78C308.64 174.1 321.28 179.57 328.77 172.09C330.9 169.96 332.23 167.02 332.23 163.78V127.5C332.23 125.29 334.02 123.5 336.23 123.5H372.51C382.83 123.5 388.33 110.89 380.84 103.37C378.69 101.24 375.74 99.91 372.51 99.91H336.23C334.02 99.91 332.23 98.12 332.23 95.91V59.63C332.22 53.17 326.92 47.84 320.43 47.84ZM400.51 306.13L400.34 431.14C400.34 434.74 403.29 437.72 406.89 437.72L435.24 437.75C438.81 437.78 441.79 434.8 441.82 431.23L441.99 306.22C441.99 302.62 439.04 299.64 435.44 299.64L407.09 299.61C403.49 299.58 400.51 302.56 400.51 306.13ZM392.38 431.14V430.23C385.61 430.12 379.88 430.85 374.86 426.29C372.45 424.08 370.86 421.1 370.64 417.76C355.3 421.05 340.51 426.24 325.94 431.31C289.6 444.01 254.51 456.25 214.11 439.76L65.54 386.86C51.31 382.3 52.13 364.13 62.34 355.14C68.97 349.3 79.6 346.15 92.95 350.35C98.68 351.8 107.18 354.49 117.38 357.72C154.06 369.37 213.02 388.08 245.48 380.09C254.44 377.88 255.57 371.16 249.08 368.44L197.18 346.84C160.27 331.48 173.91 294.48 189.53 294.34C189.53 294.57 205.15 297.88 206.68 298.28C229.92 304.09 262.89 312.34 295.12 308.14C323.41 302.3 340.76 308.57 358.67 315.03C362.64 316.48 366.64 317.92 370.77 319.23C371.34 312.2 377.6 306.96 384.77 306.98L392.54 307.09C392.54 302.55 393.65 299.04 396.82 295.86C399.46 293.25 403.08 291.61 407.08 291.61L435.43 291.67C443.42 291.67 449.94 298.19 449.94 306.21L449.77 431.22C449.74 439.21 443.22 445.73 435.23 445.73L406.88 445.67C398.9 445.68 392.38 439.16 392.38 431.14ZM392.4 422.27L392.54 315.09L384.74 314.95C381.68 314.92 378.7 317.22 378.7 320.25L378.56 416.83C378.56 419.92 381.68 422.07 384.82 422.13L392.4 422.27ZM370.61 409.59L370.72 327.56C365.56 326 360.74 324.27 355.95 322.54C328.14 312.48 325.08 313.55 296.14 316.05C262.38 320.44 228.56 312 204.75 306.02C198.8 304.55 193.47 303.21 189.27 302.33C187.91 302.53 186.35 303.8 184.96 305.76C181.47 310.61 180.59 317.52 182.75 323.53C184.88 329.4 190.12 335.24 200.24 339.46L252.14 361.06C265.21 366.5 264.5 383.62 247.38 387.85C212.77 396.38 152.48 377.22 114.97 365.31C107 362.79 98.42 360.58 90.62 357.97C78.69 354.11 67.55 357.8 63.72 366.33C61.42 371.43 62.76 377.13 68.26 379.34L216.71 432.21C257.93 446.72 283.86 437.54 323.29 423.79C338.66 418.41 354.22 413 370.61 409.59ZM245.06 0.27002H395.83C415.64 0.27002 431.86 16.48 431.86 36.3V187.1C431.86 206.91 415.65 223.13 395.83 223.13H245.06C234.15 223.13 224.28 218.23 217.62 210.4C211.72 214.82 206.03 219.67 200.78 225C182.1 247.08 164.58 252.84 146.5 258.79C142.5 260.09 138.48 261.43 134.4 262.96C138.34 268.91 136.5 277.05 130.74 281.39L124.73 285.93C127.54 289.53 128.84 292.96 128.3 297.41C127.85 301.1 125.98 304.61 122.83 307.08L100.49 324.54C94.17 329.47 85.04 328.34 80.08 322.02L3.11997 223.52C-1.81003 217.2 -0.68003 208.07 5.63997 203.14L27.98 185.68C34.19 180.78 43.32 181.82 48.36 188.17L48.93 188.91C54.32 184.8 58.37 180.72 65.14 181.2C68.4 181.46 71.49 182.82 73.73 185.31C83.74 173.29 92.21 160.08 100.57 147.07C121.38 114.58 141.47 83.26 183.63 71.38L209 62.89V36.3C209 16.49 225.22 0.27002 245.06 0.27002ZM224.17 205.76C229.36 211.54 236.81 215.14 245.06 215.14H395.83C411.25 215.14 423.86 202.5 423.86 187.11V36.3C423.86 20.91 411.25 8.27002 395.83 8.27002H245.06C229.64 8.27002 217 20.91 217 36.3C217 72.36 217 108.39 217 144.41L254.02 134.15C292.57 123.49 304.59 161.05 292.4 170.77C274.94 178 228.02 203.15 224.17 205.76ZM209 146.62V124.74C203.13 129.3 189.16 140.95 193.3 147.45C194.6 149.52 197.35 149.83 199.85 149.15L209 146.62ZM209 114.82V71.31C207.07 71.96 185.78 79.08 185.78 79.08C129.65 94.87 113.92 150.23 78.77 191.7L129.28 256.36C165.34 242.22 164.83 247.83 195.07 219.42C222.99 191.05 253.8 181.12 287.65 164.34C292.64 159.29 285.1 146.96 279.74 143.59C274.44 140.3 266.7 138.91 256.13 141.86L201.96 156.83C188.24 160.63 178.38 146.65 189.2 132.85C194.66 125.9 201.83 119.89 209 114.82ZM119.82 279.63L126.14 274.84C128.44 273.05 129.4 269.62 127.44 266.93L68.06 190.9C66.16 188.49 62.36 188.72 59.84 190.62L53.83 195.18L119.82 279.63Z" fill="white"/>
</svg>
