<svg width="78" height="84" viewBox="0 0 78 84" fill="none" xmlns="http://www.w3.org/2000/svg">
<path d="M1.67598 83.582H76.324C76.5974 83.582 76.863 83.4726 77.0584 83.2773C77.2537 83.082 77.3631 82.8163 77.3631 82.5429V76.2929C77.3631 75.7382 77.1443 75.2109 76.7537 74.8202C76.3631 74.4296 75.8318 74.2069 75.281 74.2069H72.6755V41.2689V41.1244C74.2263 39.9838 75.1443 38.1752 75.1443 36.2494C75.1521 36.1986 75.1521 36.1439 75.1443 36.0931L72.1755 17.1051V17.0544V13.7497C72.1716 10.82 69.7966 8.44106 66.863 8.43716H57.156V3.54266C57.156 1.81606 55.7576 0.417664 54.031 0.417664H23.969C22.2424 0.417664 20.844 1.81606 20.844 3.54266V8.43716H11.1448C8.21507 8.44107 5.84007 10.82 5.83227 13.7497V17.0505V17.1012L2.88697 36.0932C2.87916 36.144 2.87916 36.1987 2.88697 36.2495C2.88697 38.1753 3.80494 39.9839 5.35577 41.1245V41.269V74.167H2.75027C1.59797 74.167 0.668271 75.0967 0.668271 76.249V82.499C0.656552 82.7764 0.758114 83.0498 0.945611 83.2529C1.13702 83.4561 1.39864 83.5742 1.67598 83.582ZM7.75018 18.301H70.2502L72.1682 30.645H5.83218L7.75018 18.301ZM66.8632 10.5198C68.6484 10.5198 70.0937 11.9651 70.0937 13.7503V16.2191H57.1557V10.5199L66.8632 10.5198ZM22.9372 3.53927V3.54318C22.9372 2.96506 23.402 2.50018 23.9802 2.50018H54.0312C54.3085 2.50018 54.5741 2.60956 54.7695 2.80487C54.9648 3.00018 55.0742 3.26581 55.0742 3.54315V16.2192H22.9262L22.9372 3.53927ZM7.92518 13.7463V13.7502C7.92518 11.965 9.37048 10.5197 11.1557 10.5197H20.8549V16.2189H7.91688L7.92518 13.7463ZM5.51108 32.7303H72.4911L73.0419 36.3358V36.3319C73.0184 38.5233 71.2216 40.285 69.0302 40.2616C66.8388 40.2381 65.081 38.4413 65.1044 36.2499C65.1044 35.6756 64.6356 35.2069 64.0614 35.2069C63.4871 35.2069 63.0184 35.6756 63.0184 36.2499C63.0184 38.4413 61.2411 40.2187 59.0496 40.2187C56.8582 40.2187 55.0808 38.4414 55.0808 36.2499C55.0808 35.6756 54.6159 35.2069 54.0417 35.2069C53.4635 35.2069 52.9987 35.6756 52.9987 36.2499C53.0533 37.3397 52.6588 38.4022 51.9089 39.1952C51.1589 39.9842 50.1159 40.4335 49.0261 40.4335C47.9323 40.4335 46.8894 39.9842 46.1394 39.1952C45.3894 38.4022 44.9949 37.3397 45.0496 36.2499C45.0496 35.6756 44.5847 35.2069 44.0105 35.2069C43.4323 35.2069 42.9675 35.6756 42.9675 36.2499C42.9675 38.4413 41.1902 40.2187 38.9987 40.2187C36.8072 40.2187 35.0299 38.4414 35.0299 36.2499C35.0299 35.6756 34.565 35.2069 33.9869 35.2069C33.4126 35.2069 32.9478 35.6756 32.9478 36.2499C33.0024 37.3397 32.6079 38.4022 31.858 39.1952C31.108 39.9842 30.065 40.4335 28.9713 40.4335C27.8815 40.4335 26.8385 39.9842 26.0885 39.1952C25.3385 38.4022 24.944 37.3397 24.9987 36.2499C24.9987 35.6756 24.5338 35.2069 23.9557 35.2069C23.3814 35.2069 22.9166 35.6756 22.9166 36.2499C22.9166 38.4413 21.1393 40.2187 18.9478 40.2187C16.7564 40.2187 14.979 38.4414 14.979 36.2499C14.979 35.6756 14.5102 35.2069 13.936 35.2069C13.3617 35.2069 12.893 35.6756 12.893 36.2499C12.9164 38.4413 11.1586 40.2382 8.96716 40.2616C6.77576 40.285 4.97886 38.5233 4.95546 36.3319L5.51108 32.7303ZM7.40558 42.1053C9.88608 42.7772 12.5189 41.7889 13.9368 39.6444C15.0579 41.3124 16.9368 42.3124 18.9485 42.3124C20.9563 42.3124 22.8352 41.3124 23.9563 39.6444C25.0813 41.3124 26.9641 42.3124 28.9719 42.3124C30.9836 42.3124 32.8625 41.3124 33.9875 39.6444C35.1125 41.3124 36.9914 42.3124 38.9992 42.3124C41.007 42.3124 42.8859 41.3124 44.0109 39.6444C45.1359 41.3124 47.0148 42.3124 49.0265 42.3124C51.0343 42.3124 52.9171 41.3124 54.0421 39.6444C55.1632 41.3124 57.0421 42.3124 59.0499 42.3124C61.0616 42.3124 62.9405 41.3124 64.0616 39.6444C65.4796 41.7889 68.1124 42.7772 70.5928 42.1053V74.1673H27.4368V47.9483C27.4368 47.6709 27.3274 47.4053 27.1321 47.21C26.9368 47.0147 26.6712 46.9053 26.3938 46.9053H14.2178C13.6436 46.9053 13.1748 47.3701 13.1748 47.9483V74.1673H7.40531L7.40558 42.1053ZM25.3546 74.1673H15.2606V48.9873H25.3546V74.1673ZM2.71758 76.2493H75.2796V81.4563H2.71758V76.2493ZM32.9246 70.2493H63.7796C64.0569 70.2493 64.3226 70.1399 64.5179 69.9446C64.7132 69.7493 64.8226 69.4836 64.8226 69.2063V47.9483C64.8226 47.671 64.7132 47.4053 64.5179 47.21C64.3226 47.0147 64.0569 46.9053 63.7796 46.9053H32.9676C32.3934 46.9053 31.9246 47.3702 31.9246 47.9483V69.2063C31.9246 69.4837 32.034 69.7493 32.2293 69.9446C32.4246 70.1399 32.6902 70.2493 32.9676 70.2493L32.9246 70.2493ZM33.9676 48.9873H62.7376V68.1673H34.0106L33.9676 48.9873ZM17.2996 63.2573V59.9057C17.2996 59.3315 17.7683 58.8627 18.3426 58.8627C18.9168 58.8627 19.3856 59.3314 19.3856 59.9057V63.2612C19.3856 63.8354 18.9168 64.3003 18.3426 64.3003C17.7683 64.3003 17.2996 63.8354 17.2996 63.2612V63.2573ZM48.5496 7.28118C48.5496 7.55852 48.4402 7.82415 48.2449 8.01946C48.0496 8.21477 47.7839 8.32415 47.5105 8.32415H30.4875C29.9133 8.32415 29.4484 7.8554 29.4484 7.28115C29.4484 6.7069 29.9133 6.23815 30.4875 6.23815H47.5105C47.7839 6.23815 48.0496 6.34753 48.2449 6.54284C48.4402 6.73815 48.5496 7.00384 48.5496 7.28118ZM48.5496 11.4492C48.5496 11.7226 48.4402 11.9882 48.2449 12.1836C48.0496 12.3789 47.7839 12.4883 47.5105 12.4883H30.4875C29.9133 12.4883 29.4484 12.0234 29.4484 11.4492C29.4484 10.871 29.9133 10.4062 30.4875 10.4062H47.5105C47.7839 10.4062 48.0496 10.5155 48.2449 10.7108C48.4402 10.9062 48.5496 11.1718 48.5496 11.4492Z" fill="white"/>
</svg>
