<svg width="65" height="69" viewBox="0 0 65 69" fill="none" xmlns="http://www.w3.org/2000/svg">
<path d="M63.7291 36.48L53.5501 31.556V22.919L58.9241 20.283C59.2001 20.152 59.4011 19.902 59.4701 19.605C59.5461 19.316 59.4911 18.997 59.3101 18.748L53.4251 10.471C53.1551 10.098 52.8021 9.966 52.8021 9.966L32.9151 0.339999H32.9081C32.8391 0.305999 32.7621 0.277999 32.6931 0.264999C32.6171 0.243999 32.5411 0.237 32.4721 0.237C32.3271 0.237 32.1961 0.264999 32.0711 0.319999C32.0501 0.319999 32.0291 0.333999 32.0091 0.340999L13.6691 9.318C13.3031 9.498 13.1231 9.878 13.1231 9.878L8.37906 18.668C8.24106 18.917 8.21306 19.206 8.30306 19.477C8.39306 19.747 8.58706 19.968 8.83606 20.092L9.79706 20.555L1.60306 24.567C1.55506 24.588 0.987061 24.899 0.987061 25.514V46.661C0.987061 47.055 1.21506 47.421 1.56806 47.594L21.6221 57.324C21.6221 57.324 22.0581 57.558 22.5351 57.324L23.8491 56.68V57.869C23.8491 58.264 24.0771 58.63 24.4301 58.803L44.4841 68.532C44.4841 68.532 44.9201 68.767 45.3971 68.532L63.7711 59.5C64.1241 59.327 64.3521 58.968 64.3521 58.574V37.427C64.3521 36.777 63.7291 36.48 63.7291 36.48ZM60.9361 37.435L54.9131 40.393L46.3931 36.273L52.4161 33.313L60.9361 37.435ZM35.1771 39.474V23.244L36.8911 25.65L37.5001 26.507L39.0211 28.652C39.0211 28.652 39.3531 29.094 39.4161 29.15C39.6031 29.316 39.8451 29.406 40.0941 29.406C40.2531 29.406 40.4051 29.371 40.5501 29.296L41.4911 28.831L51.4761 23.935V31.466L35.1771 39.474ZM56.9181 18.956L41.4901 26.528L40.4321 27.047L38.2741 24.018L35.6941 20.388L52.1801 12.296L56.9181 18.956ZM33.5101 2.933L50.1411 10.975L46.6491 12.692L33.5101 6.342V2.933ZM32.4721 8.141L44.2701 13.846L34.1601 18.825L33.1581 18.341L41.4631 14.274C41.6361 14.192 41.7051 13.985 41.6221 13.818C41.5391 13.645 41.3311 13.57 41.1591 13.66L32.3561 17.969H32.3481L30.4471 17.048L30.4541 17.042H30.4611L38.8491 12.927C39.0221 12.844 39.0911 12.637 39.0081 12.463C38.9261 12.291 38.7181 12.222 38.5451 12.304L29.6721 16.654L29.6581 16.662L27.7501 15.736L27.7561 15.728L36.2351 11.572C36.4081 11.489 36.4771 11.282 36.3941 11.109C36.3111 10.943 36.1031 10.867 35.9311 10.949L26.9611 15.347L25.0531 14.428L33.6281 10.223C33.7941 10.14 33.8701 9.932 33.7871 9.76C33.7321 9.649 33.6211 9.579 33.5111 9.573C33.4491 9.558 33.3861 9.573 33.3241 9.6L24.2651 14.039H24.2591V14.046H24.2501L22.3421 13.112L32.4721 8.141ZM31.4361 2.933V6.342L19.9701 11.957H19.9631L16.4571 10.256L31.4361 2.933ZM14.5271 11.64L32.7151 20.443L32.3341 21.141L31.3451 22.974L28.9041 27.49L14.5411 20.54L12.1691 19.392L10.7171 18.694L14.5271 11.64ZM11.9961 21.785L13.0541 22.295V29.71L4.38906 25.506L11.9961 21.785ZM21.0411 54.729L3.06206 46.008V27.164L21.0411 35.879V54.729ZM23.8491 54.362L23.1161 54.721V36.943L23.8491 37.301V54.362ZM24.3891 35.255L15.1291 30.761V23.133L28.8901 29.792C29.0361 29.861 29.1941 29.896 29.3401 29.896C29.7141 29.896 30.0731 29.695 30.2601 29.349L33.1021 24.079V39.48L27.3281 36.678L24.9631 35.531L24.3891 35.255ZM43.9031 65.938L25.9241 57.218V38.374L43.9031 47.088V65.938ZM44.9341 45.289L36.4351 41.168L44.0351 37.435L52.5481 41.555L44.9341 45.289ZM62.2771 57.924L45.9781 65.932V47.088L62.2771 39.093V57.924Z" fill="white"/>
</svg>
