<svg width="430" height="192" viewBox="0 0 430 192" fill="none" xmlns="http://www.w3.org/2000/svg">
<g clip-path="url(#clip0_1_468)">
<path d="M381.4 62.34C384.15 77.52 374.1 93.65 355.35 107.92C355.17 108.06 355.36 108.33 355.55 108.2C370.51 98.43 386.34 87.47 397.07 72.92C400.91 67.71 404.15 61.46 404.72 54.91C405.78 42.69 397.62 32.11 387.38 26.37C380.56 22.55 373.08 20.14 365.48 18.42C352.25 15.41 338.63 14.45 325.09 14.63C318.21 14.72 311.33 15.09 304.48 15.74C297.86 16.37 291.25 17.2 284.7 18.34C278.2 19.48 271.74 20.73 265.33 22.28C264.64 22.45 263.94 22.62 263.25 22.8C263.04 22.85 263.09 23.16 263.31 23.14C325.44 17.26 376.13 33.15 381.41 62.32" fill="white"/>
<path d="M325.82 7.23999C325.61 7.24999 325.56 6.93999 325.77 6.88999C330.55 5.91999 335.36 5.06999 340.18 4.29999C347.85 3.06999 355.55 2.03999 363.28 1.29999C376.58 0.00999165 390.42 -0.750008 403.75 1.14999C406.74 1.57999 409.72 2.16999 412.63 2.98999C419.89 5.03999 427.33 8.94999 429.34 16.76C430.65 21.86 429.85 27.3 428.27 32.24C425.18 41.84 419.17 50.41 412.79 58.11C412.39 58.59 412 59.06 411.59 59.54C411.46 59.69 411.22 59.54 411.29 59.37C413.93 52.41 415.09 44.51 413.73 37.15C411.72 26.29 403.06 18.32 393.33 14.03C381.52 8.81999 368.51 7.54999 355.74 7.01999C345.77 6.60999 335.77 6.80999 325.81 7.24999" fill="white"/>
<path d="M100.47 120.84C100.47 135.09 88.88 146.69 74.62 146.69H0V123.03H17.87V128.82H74.63C79.04 128.82 82.61 125.25 82.61 120.84C82.61 116.43 79.04 112.86 74.63 112.86H0V94.99H59.98C64.39 94.99 67.96 91.42 67.96 87.01C67.96 82.6 64.39 79.03 59.98 79.03H17.87V84.82H0V61.16H59.98C74.23 61.16 85.83 72.75 85.83 87.01C85.83 90.45 85.15 93.72 83.93 96.73C93.6 100.47 100.48 109.86 100.48 120.84" fill="white"/>
<path d="M333.74 61.17H226.77V79.04H333.74V61.17Z" fill="white"/>
<path d="M289.2 89.22H271.33V146.69H289.2V89.22Z" fill="white"/>
<path d="M179.51 108.42L193.05 126.28H144.2L128.74 146.69H106.32L175 56.05L243.67 146.69H221.26L175 85.64L157.74 108.42H179.51Z" fill="white"/>
<path d="M119.07 181.87C119.78 182.78 120.14 183.93 120.14 185.32C120.14 187.18 119.44 188.61 118.04 189.61C116.64 190.61 114.6 191.11 111.92 191.11H101.68V169.64H111.31C113.76 169.64 115.66 170.13 117 171.11C118.34 172.09 119.01 173.45 119.01 175.19C119.01 176.31 118.75 177.29 118.23 178.1C117.71 178.92 117.01 179.54 116.13 179.97C117.38 180.32 118.36 180.95 119.07 181.86V181.87ZM104.75 172.14V179.01H111.04C112.61 179.01 113.83 178.72 114.67 178.14C115.51 177.56 115.94 176.7 115.94 175.58C115.94 174.46 115.52 173.6 114.67 173.02C113.82 172.44 112.61 172.15 111.04 172.15H104.75V172.14ZM115.72 187.78C116.6 187.21 117.04 186.31 117.04 185.08C117.04 182.69 115.29 181.49 111.8 181.49H104.75V188.63H111.8C113.54 188.63 114.85 188.34 115.73 187.77L115.72 187.78Z" fill="white"/>
<path d="M146.36 191.12L141.73 184.53C141.16 184.57 140.71 184.59 140.38 184.59H135.08V191.12H132.01V169.65H140.38C143.16 169.65 145.35 170.32 146.94 171.64C148.53 172.97 149.33 174.8 149.33 177.13C149.33 178.79 148.92 180.2 148.1 181.36C147.28 182.53 146.12 183.37 144.6 183.9L149.69 191.11H146.35L146.36 191.12ZM144.73 180.72C145.75 179.88 146.26 178.69 146.26 177.13C146.26 175.57 145.75 174.39 144.73 173.56C143.71 172.73 142.23 172.32 140.28 172.32H135.07V181.98H140.28C142.22 181.98 143.7 181.56 144.73 180.72Z" fill="white"/>
<path d="M175.09 185.75H163.68L161.32 191.12H158.16L167.88 169.65H170.92L180.67 191.12H177.45L175.09 185.75ZM174.02 183.3L169.39 172.78L164.76 183.3H174.02Z" fill="white"/>
<path d="M192.56 190.61C191.06 190.11 189.88 189.46 189.02 188.66L190.15 186.27C190.97 187.01 192.02 187.6 193.29 188.06C194.56 188.52 195.88 188.75 197.23 188.75C199.01 188.75 200.34 188.45 201.22 187.85C202.1 187.25 202.54 186.44 202.54 185.44C202.54 184.7 202.3 184.11 201.82 183.65C201.34 183.19 200.75 182.84 200.04 182.59C199.33 182.34 198.34 182.07 197.05 181.76C195.43 181.37 194.13 180.98 193.14 180.59C192.15 180.2 191.3 179.6 190.6 178.8C189.89 177.99 189.54 176.9 189.54 175.53C189.54 174.39 189.84 173.35 190.45 172.43C191.05 171.51 191.97 170.77 193.19 170.22C194.41 169.67 195.94 169.39 197.76 169.39C199.03 169.39 200.27 169.55 201.5 169.88C202.73 170.21 203.78 170.68 204.66 171.29L203.65 173.74C202.75 173.17 201.79 172.73 200.77 172.44C199.75 172.14 198.75 172 197.76 172C196.02 172 194.72 172.32 193.85 172.95C192.98 173.58 192.55 174.4 192.55 175.4C192.55 176.14 192.8 176.73 193.29 177.19C193.78 177.65 194.39 178.01 195.12 178.26C195.85 178.51 196.83 178.79 198.08 179.07C199.7 179.46 200.99 179.85 201.97 180.24C202.95 180.63 203.8 181.22 204.5 182.02C205.21 182.82 205.56 183.89 205.56 185.24C205.56 186.36 205.25 187.39 204.64 188.32C204.03 189.25 203.1 189.99 201.85 190.53C200.6 191.07 199.07 191.34 197.25 191.34C195.63 191.34 194.08 191.09 192.57 190.59L192.56 190.61Z" fill="white"/>
<path d="M217.14 169.65H220.21V191.12H217.14V169.65Z" fill="white"/>
<path d="M233.76 169.65H236.83V188.45H248.45V191.12H233.76V169.65Z" fill="white"/>
</g>
<defs>
<clipPath id="clip0_1_468">
<rect width="430" height="191.36" fill="white"/>
</clipPath>
</defs>
</svg>
